<svg width="18" height="18" viewBox="0 0 18 18" fill="none" xmlns="http://www.w3.org/2000/svg">
<path d="M14.7807 18H3.1991C1.43757 18 0 16.5624 0 14.7807V3.1991C0 1.43757 1.43757 0 3.1991 0H14.7807C16.5422 0 17.9798 1.43757 17.9798 3.1991V14.7807C18 16.5624 16.5624 18 14.7807 18ZM3.1991 1.21485C2.10574 1.21485 1.21485 2.10574 1.21485 3.1991V14.7807C1.21485 15.874 2.10574 16.7649 3.1991 16.7649H14.7807C15.874 16.7649 16.7649 15.874 16.7649 14.7807V3.1991C16.7649 2.10574 15.874 1.21485 14.7807 1.21485H3.1991Z" fill="#255C85"/>
<path d="M9.67827 4.25197V8.52418H13.7885V9.61755H9.67827V13.9303H8.50391V9.63779H4.39368V8.54443H8.50391V4.25197H9.67827Z" fill="#255C85"/>
</svg>
