<svg width="25" height="21" viewBox="0 0 25 21" fill="none" xmlns="http://www.w3.org/2000/svg">
<path d="M0 9.70144C3.13892 6.50719 6.32379 3.26619 9.5334 0C9.5334 0.0863309 9.5334 0.158273 9.5334 0.233813C9.5334 1.94964 9.53341 3.66187 9.52987 5.3777C9.52987 5.51799 9.56522 5.56835 9.71015 5.59353C12.4355 6.02158 14.9806 6.93885 17.2428 8.57914C19.5758 10.2698 21.2902 12.4856 22.5239 15.0971C23.4005 16.9496 23.9767 18.8993 24.3584 20.9137C24.362 20.9353 24.3584 20.9568 24.3584 21C24.1039 20.6583 23.8706 20.3273 23.6232 20.0072C21.1983 16.8489 18.0134 14.9748 14.1676 14.2194C12.7006 13.9317 11.216 13.8094 9.72429 13.7914C9.66773 13.7914 9.61117 13.7914 9.53694 13.7914C9.53694 15.6906 9.53694 17.5683 9.53694 19.4389C6.3556 16.1871 3.17427 12.9389 0 9.70144Z" fill="white"/>
</svg>
