<svg width="16" height="20" viewBox="0 0 16 20" fill="none" xmlns="http://www.w3.org/2000/svg">
<path d="M3.35155 19.9501C2.57376 19.6664 1.96584 19.223 1.79598 18.3541C1.76916 18.1945 1.75128 18.0349 1.75128 17.8753C1.75128 13.4241 1.75128 8.98183 1.75128 4.53068C1.75128 4.43314 1.75128 4.32674 1.75128 4.20261C6.06932 4.20261 10.3516 4.20261 14.6964 4.20261C14.6964 4.37108 14.6964 4.53955 14.6964 4.70802C14.6964 8.9375 14.6696 13.1581 14.7143 17.3876C14.7233 18.6378 14.3567 19.5422 13.0962 19.959C9.85095 19.9501 6.59678 19.9501 3.35155 19.9501ZM3.80749 12.0054C3.80749 12.8744 3.80749 13.7522 3.80749 14.6211C3.80749 15.5256 3.79855 16.4211 3.80749 17.3255C3.81643 17.7334 4.08463 18.0171 4.46011 18.026C4.83559 18.0437 5.11273 17.7866 5.15743 17.3699C5.17531 17.228 5.16637 17.0773 5.16637 16.9265C5.16637 13.9118 5.16637 10.8971 5.16637 7.88234C5.16637 7.50107 5.19319 7.11093 5.14849 6.72965C5.12167 6.51685 5.02333 6.24198 4.86241 6.12671C4.70149 6.01144 4.34389 5.95824 4.21873 6.05578C4.01311 6.21538 3.81643 6.51685 3.81643 6.76512C3.78961 8.52076 3.80749 10.2675 3.80749 12.0054ZM8.92119 12.0586C8.92119 10.4626 8.92119 8.86656 8.92119 7.27053C8.92119 7.04886 8.93013 6.82719 8.91225 6.60552C8.87649 6.22424 8.64405 6.02031 8.26856 5.98484C7.92884 5.94937 7.61594 6.23311 7.57124 6.59665C7.55336 6.71192 7.5623 6.83606 7.5623 6.95133C7.5623 10.3207 7.5623 13.6901 7.5623 17.0507C7.5623 17.2014 7.54442 17.3521 7.58018 17.494C7.66958 17.8309 7.90202 18.0349 8.25962 18.0171C8.61723 18.0083 8.84073 17.8132 8.89437 17.4585C8.91225 17.3167 8.91225 17.1659 8.91225 17.0152C8.92119 15.366 8.92119 13.7167 8.92119 12.0586ZM11.3082 12.0143C11.3082 13.699 11.3082 15.3837 11.3082 17.0684C11.3082 17.2457 11.3082 17.4319 11.3708 17.5915C11.478 17.9107 11.7284 18.0615 12.0681 18.026C12.3989 17.9905 12.6134 17.8043 12.6581 17.4585C12.676 17.3433 12.6671 17.2191 12.6671 17.1039C12.6671 13.7079 12.6671 10.3119 12.6671 6.91586C12.6671 6.80059 12.6671 6.67645 12.6492 6.56118C12.6045 6.22424 12.372 5.98484 12.0591 6.02031C11.8267 6.04691 11.5674 6.23311 11.3976 6.41932C11.2992 6.51685 11.3171 6.75625 11.3171 6.92472C11.3082 8.61829 11.3082 10.3207 11.3082 12.0143Z" fill="#255C85"/>
<path d="M9.7889 0C10.2538 0.212804 10.6024 0.523143 10.7008 1.06402C11.6395 1.06402 12.5514 1.05515 13.4543 1.06402C14.7685 1.07289 15.7877 2.08371 15.8234 3.4226C10.7723 3.4226 5.72118 3.4226 0.670067 3.4226C0.553846 2.22558 1.65347 1.09062 2.95871 1.06402C3.8706 1.04629 4.77354 1.05515 5.68542 1.04629C5.7033 1.04629 5.71224 1.03742 5.76589 1.01969C5.84635 0.53201 6.18607 0.203937 6.65989 0C7.70587 0 8.74292 0 9.7889 0Z" fill="#255C85"/>
</svg>
