<svg width="14" height="15" viewBox="0 0 14 15" fill="none" xmlns="http://www.w3.org/2000/svg">
<path d="M10.4964 9.58929C11.4871 10.517 12.4963 11.4538 13.487 12.3999C13.9037 12.7948 14.0888 13.2724 13.9592 13.8327C13.8388 14.393 13.4963 14.7788 12.9315 14.9349C12.3667 15.1003 11.876 14.9441 11.4686 14.54C10.4872 13.5664 9.50574 12.5836 8.55209 11.5916C8.3484 11.3804 8.191 11.3344 7.90398 11.4446C4.33935 12.8132 0.422888 10.3884 0.0340194 6.595C-0.280779 3.53642 1.61727 0.836046 4.56156 0.147175C7.8299 -0.615174 11.1908 1.67188 11.6445 4.97845C11.8204 6.20923 11.7093 7.76149 10.4964 9.58929ZM5.84853 9.85565C8.00582 9.86484 9.75573 8.1197 9.76499 5.94287C9.77425 3.75686 8.0336 1.98416 5.86705 1.97498C3.71901 1.96579 1.9691 3.72012 1.95059 5.88776C1.92281 8.07377 3.68198 9.84647 5.84853 9.85565Z" fill="#255C85"/>
</svg>
