<svg width="16" height="19" viewBox="0 0 16 19" fill="none" xmlns="http://www.w3.org/2000/svg">
<path d="M3.36841 11.2057C3.36841 9.2625 3.36841 7.31932 3.36841 5.37613C3.36841 4.13466 4.04209 3.45454 5.26314 3.45454C8.21051 3.45454 11.1579 3.45454 14.1052 3.45454C15.3263 3.45454 16 4.13466 16 5.38693C16 9.27329 16 13.1597 16 17.046C16 18.3307 15.3368 19 14.0737 19C11.1474 19 8.21051 19 5.2842 19C4.03157 19 3.36841 18.3199 3.36841 17.0352C3.36841 15.092 3.36841 13.1489 3.36841 11.2057ZM5.0842 5.20341C5.0842 9.24091 5.0842 13.246 5.0842 17.2295C8.17893 17.2295 11.2316 17.2295 14.2842 17.2295C14.2842 13.2028 14.2842 9.21931 14.2842 5.20341C11.221 5.20341 8.16841 5.20341 5.0842 5.20341Z" fill="#255C85"/>
<path d="M11.7684 0C11.7684 0.59375 11.7684 1.12273 11.7684 1.71648C8.42105 1.71648 5.08421 1.71648 1.68421 1.71648C1.68421 5.77557 1.68421 9.76988 1.68421 13.7966C1.10526 13.7966 0.589473 13.7966 0 13.7966C0 13.6023 0 13.4187 0 13.2244C0 9.47841 0 5.74318 0 1.99716C0 0.669318 0.642105 0 1.92632 0C5.18947 0 8.45263 0 11.7684 0Z" fill="#255C85"/>
</svg>
