<svg width="16" height="16" viewBox="0 0 16 16" fill="none" xmlns="http://www.w3.org/2000/svg">
<path d="M10.1506 8.0837C11.7675 9.67207 13.3561 11.225 14.9446 12.785C15.1077 12.941 15.2637 13.1041 15.4269 13.2672C16.1431 14.0117 16.1786 14.9477 15.519 15.5859C14.9021 16.1815 13.9872 16.139 13.2568 15.4299C11.8668 14.0684 10.4839 12.6928 9.12227 11.303C8.76768 10.9484 8.49111 10.5159 8.07269 9.99116C6.30684 11.7993 4.73247 13.409 3.1581 15.0186C3.00208 15.1817 2.83897 15.3448 2.67586 15.4937C1.96668 16.1532 1.04475 16.1673 0.413581 15.5221C-0.167944 14.9335 -0.139577 14.0117 0.519957 13.3239C1.5199 12.2886 2.54111 11.2675 3.56942 10.2606C4.31405 9.53734 5.07997 8.83534 5.95225 8.01988C4.21477 6.31806 2.60494 4.73679 0.995107 3.1626C0.831996 3.0066 0.675976 2.84351 0.519957 2.68042C-0.118302 1.9997 -0.160852 1.09206 0.420673 0.482239C1.03057 -0.163035 1.95959 -0.170125 2.68295 0.517694C3.66161 1.45369 4.61191 2.41806 5.56221 3.38242C6.34939 4.1837 7.12239 4.99915 8.01596 5.93515C9.69671 4.21206 11.2711 2.60242 12.8384 0.985692C12.9944 0.822601 13.1504 0.659511 13.3206 0.510602C14.0581 -0.148853 14.9588 -0.155944 15.59 0.482239C16.1644 1.07079 16.1431 1.9926 15.4765 2.68042C13.9376 4.25461 12.3703 5.80043 10.8172 7.36043C10.6186 7.56607 10.4343 7.77879 10.1506 8.0837Z" fill="white"/>
</svg>
