<svg width="16" height="20" viewBox="0 0 16 20" fill="none" xmlns="http://www.w3.org/2000/svg">
<path d="M2.68993 19.9501C1.91214 19.6664 1.30422 19.223 1.13436 18.3541C1.10754 18.1945 1.08966 18.0349 1.08966 17.8753C1.08966 13.4241 1.08966 8.98183 1.08966 4.53068C1.08966 4.43314 1.08966 4.32674 1.08966 4.20261C5.4077 4.20261 9.68997 4.20261 14.0348 4.20261C14.0348 4.37108 14.0348 4.53955 14.0348 4.70802C14.0348 8.9375 14.008 13.1581 14.0527 17.3876C14.0616 18.6378 13.6951 19.5422 12.4346 19.959C9.18933 19.9501 5.93516 19.9501 2.68993 19.9501ZM3.14587 12.0054C3.14587 12.8744 3.14587 13.7522 3.14587 14.6211C3.14587 15.5256 3.13693 16.4211 3.14587 17.3255C3.15481 17.7334 3.42301 18.0171 3.79849 18.026C4.17397 18.0437 4.45111 17.7866 4.49581 17.3699C4.51369 17.228 4.50475 17.0773 4.50475 16.9265C4.50475 13.9118 4.50475 10.8971 4.50475 7.88234C4.50475 7.50107 4.53157 7.11093 4.48687 6.72965C4.46005 6.51685 4.36171 6.24198 4.20079 6.12671C4.03987 6.01144 3.68227 5.95824 3.55711 6.05578C3.35149 6.21538 3.15481 6.51685 3.15481 6.76512C3.12799 8.52076 3.14587 10.2675 3.14587 12.0054ZM8.25957 12.0586C8.25957 10.4626 8.25957 8.86656 8.25957 7.27053C8.25957 7.04886 8.26851 6.82719 8.25063 6.60552C8.21487 6.22424 7.98242 6.02031 7.60694 5.98484C7.26722 5.94937 6.95432 6.23311 6.90962 6.59665C6.89174 6.71192 6.90068 6.83606 6.90068 6.95133C6.90068 10.3207 6.90068 13.6901 6.90068 17.0507C6.90068 17.2014 6.8828 17.3521 6.91856 17.494C7.00796 17.8309 7.2404 18.0349 7.598 18.0171C7.9556 18.0083 8.1791 17.8132 8.23275 17.4585C8.25063 17.3167 8.25063 17.1659 8.25063 17.0152C8.25957 15.366 8.25957 13.7167 8.25957 12.0586ZM10.6466 12.0143C10.6466 13.699 10.6466 15.3837 10.6466 17.0684C10.6466 17.2457 10.6466 17.4319 10.7091 17.5915C10.8164 17.9107 11.0667 18.0615 11.4065 18.026C11.7372 17.9905 11.9518 17.8043 11.9965 17.4585C12.0144 17.3433 12.0054 17.2191 12.0054 17.1039C12.0054 13.7079 12.0054 10.3119 12.0054 6.91586C12.0054 6.80059 12.0054 6.67645 11.9876 6.56118C11.9429 6.22424 11.7104 5.98484 11.3975 6.02031C11.1651 6.04691 10.9058 6.23311 10.736 6.41932C10.6376 6.51685 10.6555 6.75625 10.6555 6.92472C10.6466 8.61829 10.6466 10.3207 10.6466 12.0143Z" fill="white"/>
<path d="M9.12728 0C9.59216 0.212804 9.94082 0.523143 10.0392 1.06402C10.9779 1.06402 11.8897 1.05515 12.7927 1.06402C14.1069 1.07289 15.126 2.08371 15.1618 3.4226C10.1107 3.4226 5.05956 3.4226 0.00844569 3.4226C-0.107775 2.22558 0.991849 1.09062 2.29709 1.06402C3.20898 1.04629 4.11192 1.05515 5.0238 1.04629C5.04168 1.04629 5.05062 1.03742 5.10426 1.01969C5.18472 0.53201 5.52445 0.203937 5.99827 0C7.04425 0 8.08129 0 9.12728 0Z" fill="white"/>
</svg>
