<svg width="19" height="19" viewBox="0 0 19 19" fill="none" xmlns="http://www.w3.org/2000/svg">
<path d="M9.49997 15.6129C7.60942 13.33 5.71888 11.1316 3.78107 8.80646C5.10445 8.80646 6.28604 8.80646 7.56216 8.80646C7.56216 6.52355 7.56216 4.28291 7.56216 2C8.83828 2 10.0671 2 11.3433 2C11.3433 4.24064 11.3433 6.48127 11.3433 8.80646C12.6194 8.80646 13.8482 8.80646 15.1716 8.80646C13.2811 11.0894 11.4378 13.33 9.49997 15.6129Z" fill="white"/>
<path d="M0 17.3463C6.33333 17.3463 12.6667 17.3463 19 17.3463C19 17.8958 19 18.4032 19 18.9527C12.6667 18.9527 6.3806 18.9527 0 18.9527C0 18.4454 0 17.9381 0 17.3463Z" fill="white"/>
</svg>
