<svg width="16" height="17" viewBox="0 0 16 17" fill="none" xmlns="http://www.w3.org/2000/svg">
<path d="M10.6726 9.50588C11.1181 9.50588 11.5358 9.50588 11.951 9.50588C12.6294 9.50335 13.3104 9.50588 13.9889 9.49829C14.48 9.49323 14.9407 9.36665 15.3432 9.07553C16.1988 8.45784 16.2216 7.225 15.3913 6.57441C15.366 6.55416 15.3407 6.5339 15.3052 6.50606C15.7128 6.1719 15.928 5.7542 15.8672 5.22765C15.809 4.71882 15.5913 4.30365 15.1154 4.06063C15.6217 3.21005 15.4647 2.45819 14.7053 1.97468C14.7635 1.76709 14.8445 1.56964 14.8673 1.36712C14.9432 0.668423 14.5103 0.136807 13.8142 0.0507364C13.6598 0.0304842 13.5028 0.0203581 13.3484 0.0203581C10.7966 0.017827 8.24235 0.0228891 5.6906 0.015295C5.2248 0.012764 4.89318 0.240599 4.58686 0.544379C4.56155 0.569694 4.55649 0.620323 4.55649 0.660827C4.55396 3.16701 4.55142 5.67319 4.55902 8.17938C4.55902 8.44012 4.7261 8.64517 4.9109 8.81478C5.31087 9.17932 5.71591 9.53626 6.12095 9.8932C6.82218 10.5084 7.50821 11.1362 8.15628 11.8095C9.04737 12.7361 9.59164 13.8499 9.97643 15.0549C10.0043 15.1435 10.0321 15.2321 10.0625 15.3182C10.2701 15.9308 10.7612 16.0751 11.2776 15.9865C11.7004 15.9156 12.0193 15.6726 12.2345 15.3055C12.5611 14.7511 12.6168 14.1537 12.5206 13.531C12.394 12.7057 12.0548 11.9589 11.6599 11.2324C11.3713 10.7033 11.0624 10.1869 10.7612 9.66284C10.7384 9.62233 10.7156 9.5793 10.6726 9.50588Z" fill="#ED6855"/>
<path d="M0 4.30605C0 5.55155 0 6.79451 0 8.04001C0 8.4248 0.199988 8.62732 0.582245 8.62732C1.52649 8.62732 2.47074 8.62732 3.41752 8.62732C3.79978 8.62732 4.0023 8.4248 4.0023 8.04254C4.0023 5.55408 4.0023 3.06562 4.0023 0.577153C4.0023 0.202492 3.79978 -2.76566e-05 3.42512 -2.76566e-05C2.47581 -2.76566e-05 1.52649 -2.76566e-05 0.577182 -2.76566e-05C0.197457 -2.76566e-05 0 0.19743 0 0.574623C0 1.81759 0 3.06055 0 4.30605Z" fill="#ED6855"/>
</svg>
