<svg width="19" height="19" viewBox="0 0 19 19" fill="none" xmlns="http://www.w3.org/2000/svg">
<path d="M0 2.63749C0.280221 1.94518 0.807697 1.73089 1.53298 1.73913C4.33519 1.76386 7.1374 1.74738 9.93137 1.74738C10.0715 1.74738 10.2198 1.74738 10.3352 1.74738C9.99731 2.11826 9.67588 2.48914 9.32972 2.82705C9.25555 2.90123 9.07423 2.88475 8.94236 2.88475C6.60993 2.88475 4.2775 2.88475 1.93682 2.88475C1.68957 2.88475 1.45056 2.88475 1.17858 2.88475C1.17858 7.72268 1.17858 12.5359 1.17858 17.3656C5.60443 17.3656 10.022 17.3656 14.4644 17.3656C14.4726 17.2172 14.4808 17.0771 14.4808 16.9453C14.4808 14.7859 14.4891 12.6348 14.4726 10.4754C14.4726 10.1293 14.555 9.8738 14.827 9.65951C15.0825 9.45346 15.305 9.21445 15.5935 8.94247C15.6017 9.14028 15.6182 9.2639 15.6182 9.39577C15.6182 11.959 15.6182 14.5304 15.6182 17.0936C15.6182 17.9508 15.4451 18.2145 14.6704 18.5359C10.0797 18.5359 5.49728 18.5359 0.906598 18.5359C0.469783 18.3711 0.164836 18.0662 0 17.6293C0 12.6348 0 7.64027 0 2.63749Z" fill="#255C85"/>
<path d="M18.544 2.88463C18.3626 3.63464 17.9176 4.20332 17.3819 4.73904C14.8681 7.21158 12.3626 9.7006 9.84062 12.1731C9.68403 12.3297 9.46974 12.4534 9.25546 12.5275C8.01918 12.9396 6.78291 13.3352 5.53016 13.7144C5.33236 13.7721 5.01093 13.7721 4.89554 13.6567C4.77191 13.5166 4.73895 13.2034 4.79664 12.9973C5.15104 11.7198 5.5384 10.4424 5.94225 9.17313C6.00818 8.95884 6.14005 8.74455 6.29665 8.58796C8.82688 6.04948 11.3654 3.51925 13.8956 0.980775C14.3736 0.494508 14.9341 0.18132 15.5769 0C15.7994 0 16.0137 0 16.2363 0C17.4396 0.337914 18.1978 1.11264 18.544 2.30771C18.544 2.49727 18.544 2.69507 18.544 2.88463ZM6.20599 12.305C7.14555 12.0001 8.0027 11.7363 8.85985 11.4479C8.99172 11.4067 9.11534 11.2913 9.21425 11.1841C11.695 8.73631 14.1758 6.28026 16.6566 3.8242C16.8626 3.62639 17.0522 3.39562 17.2088 3.16485C17.4725 2.76925 17.4396 2.3654 17.1676 1.96979C16.4835 0.964291 15.6264 0.873631 14.761 1.73078C12.2637 4.2198 9.76645 6.71707 7.26918 9.21434C7.17028 9.31324 7.06313 9.41214 7.02193 9.53577C6.75819 10.4341 6.49445 11.3242 6.20599 12.305Z" fill="#255C85"/>
</svg>
