<svg width="24" height="24" viewBox="0 0 24 24" fill="none" xmlns="http://www.w3.org/2000/svg">
<path d="M2.05858 15.58C1.78201 14.6889 2.12004 13.7362 2.12004 12.8143C2.12004 8.66581 5.25448 5.16261 9.24936 3.99488V5.16261L14.3198 2.58131L9.24936 0V1.84379C3.10339 3.13444 0.0918705 7.52881 0.0918705 12.8143C0.0918705 13.5519 -0.0925085 14.3201 0.0611407 14.9962L0.15333 13.9206L2.05858 15.58Z" fill="#255C85"/>
<path d="M18.6523 14.443L18.3142 20.128L23.0466 17.0243L21.5101 16.0717C21.8482 15.0576 21.9711 13.9821 21.9711 12.8143C21.9711 7.9283 18.7752 3.81051 14.4423 2.24329L15.2413 2.85788L12.8136 3.87197C16.8699 4.82459 19.9429 8.48144 19.9429 12.8143C19.9429 13.5519 19.82 14.3201 19.6663 14.9962L18.6523 14.443Z" fill="#255C85"/>
<path d="M17.5767 18.991C15.8866 20.8348 13.5204 21.9718 10.7854 21.9718C8.35778 21.9718 6.11451 20.9577 4.48583 19.3905L5.49991 18.8374L0.767517 15.7337L1.10555 21.4187L2.67277 20.4661C4.70094 22.6479 7.62027 24 10.8162 24C13.5819 24 16.1017 22.9859 18.0684 21.2958L17.2694 21.5723L17.5767 18.991Z" fill="#255C85"/>
<path d="M11.6076 6.35497C11.6097 6.77504 11.6138 7.19309 11.6097 7.61317C11.6097 7.70855 11.6404 7.73291 11.7305 7.73697C12.2773 7.76538 12.8158 7.84452 13.336 8.01905C13.4978 8.07384 13.6514 8.14284 13.8111 8.20169C13.8766 8.22604 13.8869 8.26054 13.8684 8.32548C13.7578 8.73947 13.6514 9.1555 13.5428 9.57152C13.508 9.70748 13.4711 9.84548 13.4343 9.9916C13.2438 9.91651 13.0657 9.84345 12.8855 9.77445C12.4391 9.60399 11.9783 9.50455 11.5012 9.48019C11.1878 9.46599 10.8725 9.45178 10.5653 9.53499C10.3134 9.60196 10.08 9.7014 9.93868 9.93477C9.7298 10.2818 9.79738 10.6349 10.1107 10.8947C10.3523 11.0956 10.6267 11.2376 10.9114 11.3574C11.3844 11.5562 11.8698 11.7287 12.3408 11.9317C12.8507 12.1488 13.3258 12.4268 13.7046 12.8408C13.9954 13.1574 14.1817 13.5288 14.2636 13.9509C14.3824 14.5617 14.3415 15.1563 14.0793 15.7266C13.8705 16.1832 13.549 16.5485 13.1353 16.8367C12.6909 17.1472 12.1954 17.3399 11.6629 17.4374C11.5564 17.4556 11.5216 17.4962 11.5237 17.6078C11.5319 18.0543 11.5278 18.5007 11.5257 18.9472C11.5257 18.9837 11.5216 19.0203 11.5196 19.0588C11.0076 19.0588 10.4957 19.0588 9.98373 19.0588C9.98578 19.0365 9.99192 19.0121 9.99192 18.9898C9.99192 18.5535 9.99192 18.1172 9.99397 17.6809C9.99397 17.6098 9.97554 17.5794 9.89772 17.5753C9.31 17.5408 8.73047 17.4475 8.17142 17.2669C7.89701 17.1796 7.6349 17.0518 7.37073 16.9361C7.35025 16.928 7.33387 16.8691 7.34206 16.8387C7.42602 16.4998 7.51407 16.1649 7.60008 15.826C7.66152 15.5886 7.725 15.3491 7.79053 15.0975C7.92773 15.1624 8.0547 15.2233 8.18166 15.2822C8.75095 15.5379 9.34686 15.6982 9.97144 15.755C10.3933 15.7936 10.811 15.7915 11.2145 15.6495C11.5093 15.546 11.7633 15.3857 11.8636 15.067C11.9701 14.7342 11.8902 14.4379 11.6506 14.1883C11.3721 13.8981 11.0117 13.7419 10.6472 13.5998C10.0882 13.3847 9.51273 13.2142 8.9844 12.924C8.49088 12.6541 8.0506 12.3294 7.74957 11.8444C7.51407 11.4649 7.41578 11.0489 7.41783 10.6065C7.41988 9.80692 7.725 9.13926 8.33525 8.61771C8.80624 8.22198 9.35505 7.99064 9.95097 7.86482C10.0431 7.84452 10.0779 7.81408 10.0779 7.71261C10.0697 7.26006 10.0738 6.80549 10.0718 6.35294C10.5837 6.35497 11.0957 6.35497 11.6076 6.35497Z" fill="#255C85"/>
</svg>
