<svg width="18" height="17" viewBox="0 0 18 17" fill="none" xmlns="http://www.w3.org/2000/svg">
<path d="M8.51039 0C11.0566 0 13.6028 0 16.149 0C16.5888 0 16.8438 0.176177 16.9626 0.559362C17.0417 0.819223 17.0065 1.06147 16.813 1.26407C16.7251 1.35656 16.6371 1.44465 16.5448 1.53274C14.689 3.39141 12.8332 5.25007 10.9774 7.10434C10.8631 7.21885 10.8147 7.32896 10.8147 7.49193C10.8191 10.3812 10.8191 13.2705 10.8191 16.1554C10.8191 16.7148 10.4541 17.0715 9.93081 16.9879C9.77689 16.9614 9.60539 16.8733 9.49545 16.7632C8.47521 15.7546 7.46376 14.7328 6.44792 13.7198C6.26322 13.5348 6.18406 13.319 6.18406 13.0547C6.18846 11.2004 6.18406 9.35059 6.18846 7.49633C6.18846 7.33777 6.14448 7.22325 6.03015 7.10874C4.1128 5.20162 2.19985 3.2813 0.282496 1.36097C-0.0209372 1.05706 -0.0781059 0.761965 0.102195 0.409611C0.260509 0.105706 0.519966 0 0.849785 0C2.69238 0.00440442 4.53497 0 6.37756 0C7.08996 0 7.80237 0 8.51039 0Z" fill="#FEC156"/>
</svg>
