<svg width="32" height="37" viewBox="0 0 32 37" fill="none" xmlns="http://www.w3.org/2000/svg">
<path d="M32 3.09623C32 13.4222 32 23.7326 32 34.0586C31.6664 35.5912 30.7716 36.582 29.2701 37C20.4284 37 11.5716 37 2.72986 37C1.3346 36.6439 0.500474 35.6841 0 34.3682C0 23.8874 0 13.4222 0 2.94142C0.318483 1.39331 1.2436 0.417992 2.72986 0C11.5716 0 20.4284 0 29.2701 0C30.8322 0.433473 31.7422 1.47071 32 3.09623ZM29.7251 18.4071C29.7403 18.4071 29.7555 18.4071 29.7706 18.4071C29.7706 13.4841 29.7706 8.56109 29.7706 3.62259C29.7706 2.39958 29.528 2.16736 28.3602 2.16736C20.1251 2.16736 11.89 2.16736 3.63981 2.16736C2.5327 2.16736 2.13839 2.56987 2.12322 3.68452C2.06256 13.4531 2.01706 23.2372 1.97156 33.0059C1.97156 34.5385 2.21422 34.7862 3.74597 34.7862C10.1611 34.7862 16.5763 34.7862 23.0066 34.7862C24.6749 34.7862 26.3431 34.8017 28.0114 34.7862C29.3611 34.7707 29.7251 34.3837 29.7251 33.0368C29.7251 28.1602 29.7251 23.2837 29.7251 18.4071Z" fill="white"/>
<path d="M13.3763 30.8385C13.2398 30.4979 12.982 30.1883 13.0427 29.987C13.5128 28.4699 13.7858 26.9218 15.0749 25.7142C17.6531 23.2837 20.0948 20.6983 22.5517 18.1439C23.0521 17.6176 23.4313 17.5711 23.9166 18.1439C24.3412 18.6548 24.8114 19.1193 25.3119 19.5682C25.8578 20.0481 25.8427 20.4352 25.327 20.946C22.673 23.5933 20.019 26.2561 17.4408 28.9808C16.3488 30.1264 14.8322 30.0799 13.3763 30.8385Z" fill="white"/>
<path d="M12.4361 7.91087C10.0095 7.91087 7.58298 7.91087 5.15643 7.91087C4.29198 7.91087 3.7915 7.50836 3.7915 6.82719C3.7915 6.13054 4.27681 5.72803 5.14127 5.72803C10.0247 5.72803 14.8929 5.72803 19.7763 5.72803C20.656 5.72803 21.1109 6.13054 21.0958 6.85815C21.0806 7.53932 20.6256 7.92635 19.7915 7.92635C17.3346 7.91087 14.8929 7.91087 12.4361 7.91087Z" fill="white"/>
<path d="M10.692 11.9669C8.93275 11.9669 7.15834 11.9669 5.3991 11.9669C4.53464 11.9669 4.04933 11.5799 4.03417 10.8833C4.019 10.1402 4.48915 9.72217 5.3991 9.72217C9.00858 9.72217 12.6181 9.72217 16.2124 9.72217C16.7735 9.72217 17.2891 9.92342 17.3801 10.4807C17.4408 10.8678 17.274 11.3941 17.0313 11.7038C16.8645 11.9205 16.3944 11.9669 16.0607 11.9669C14.2711 11.9824 12.4816 11.9669 10.692 11.9669Z" fill="white"/>
<path d="M9.00855 14.2272C10.2977 14.2272 11.5868 14.2117 12.8759 14.2272C13.6645 14.2272 14.1195 14.6606 14.1195 15.3573C14.1346 16.0539 13.6948 16.5029 12.891 16.5184C10.2673 16.5339 7.64363 16.5339 5.01993 16.5184C4.24647 16.5184 3.77633 16.023 3.79149 15.3418C3.80666 14.6761 4.30713 14.2426 5.06543 14.2426C6.38486 14.2272 7.68912 14.2272 9.00855 14.2272Z" fill="white"/>
<path d="M7.99245 19.0419C8.8569 19.0419 9.70619 19.0264 10.5706 19.0419C11.3441 19.0573 11.8142 19.4908 11.8597 20.172C11.9052 20.8996 11.4654 21.4724 10.692 21.4879C8.93273 21.5343 7.15832 21.5343 5.38392 21.4879C4.62562 21.4724 4.12515 20.8841 4.15548 20.2029C4.18581 19.5218 4.71662 19.0419 5.50524 19.0419C6.33937 19.0264 7.15832 19.0419 7.99245 19.0419Z" fill="white"/>
<path d="M28.1025 17.7878C27.9053 18.0355 27.5868 18.5309 27.1925 18.9489C27.0863 19.0573 26.6465 18.9644 26.4797 18.8096C25.8427 18.2368 25.2513 17.5866 24.6446 16.9673C24.3413 16.6577 24.311 16.3481 24.6446 16.0385C24.8873 15.8063 25.0844 15.5276 25.3574 15.3418C25.6001 15.187 25.9186 15.0632 26.1764 15.0786C26.8437 15.1715 28.1025 16.7661 28.1025 17.7878Z" fill="white"/>
</svg>
