<svg width="28" height="28" viewBox="0 0 28 28" fill="none" xmlns="http://www.w3.org/2000/svg">
<mask id="path-1-inside-1" fill="white">
<path fill-rule="evenodd" clip-rule="evenodd" d="M10.845 9.66854L10.8451 9.66849L10.8451 9.66848C11.0435 9.3402 11.2415 9.01265 11.3867 8.66029C11.7434 7.79815 12.0666 6.91836 12.4044 5.99924L12.4044 5.99917C12.4791 5.7958 12.5545 5.59052 12.6312 5.38307C12.6573 5.38307 12.7075 5.37843 12.7763 5.37208L12.7764 5.37207L12.7764 5.37207C12.8716 5.36328 13.0023 5.35122 13.1539 5.34358V3.422H9.47029C9.45784 3.23774 9.44851 3.06335 9.43917 2.88896C9.42984 2.71457 9.42051 2.54018 9.40806 2.35591H7.66583C7.64094 2.69811 7.61605 3.02715 7.57872 3.39568H3.88269V5.34358H10.6401C10.665 6.47547 9.75651 8.41022 8.71117 9.4763C8.26657 8.429 7.83017 7.4164 7.37533 6.36101L7.05605 5.61997C6.62049 5.72527 6.11026 5.85688 5.52537 6.01482C5.9236 7.77847 6.69516 9.33153 7.6285 10.9109C7.20629 11.2712 6.78408 11.6295 6.35974 11.9896L6.35919 11.9901C5.68305 12.5639 5.00147 13.1423 4.30581 13.7406L4.47844 14.0367L4.4785 14.0368C4.69009 14.4 4.91925 14.7934 5.20181 15.2674C6.08855 14.527 6.95428 13.8088 7.82001 13.0906L8.68628 12.3718C8.84579 12.5159 9.00895 12.6599 9.17348 12.8051L9.17352 12.8051L9.17356 12.8052C9.53528 13.1244 9.9036 13.4495 10.2543 13.7933C10.3663 13.9117 10.4534 14.1223 10.4534 14.2934C10.4658 15.32 10.4658 16.3598 10.4658 17.4522C10.392 17.4571 10.3215 17.4638 10.2532 17.4703C10.1375 17.4813 10.0279 17.4917 9.91829 17.4917H0.647115C0.511084 17.4917 0.369907 17.4536 0.230201 17.4159L0.23019 17.4159C0.152629 17.395 0.0755214 17.3742 0 17.3601V0.118454C0.0666326 0.106708 0.132164 0.092634 0.19725 0.0786553L0.19725 0.0786553C0.350964 0.0456412 0.502191 0.0131615 0.65956 0.0131615C5.71204 0.0131615 10.7645 0.0131615 15.817 0C16.3894 0 16.5637 0.184261 16.5512 0.789692C16.5326 2.95673 16.5349 5.1164 16.5372 7.31835V7.32023V7.32211V7.32401C16.538 8.06238 16.5388 8.80551 16.5388 9.55527H14.6597C14.4108 9.55527 14.1619 9.55742 13.913 9.55957H13.9129C13.2907 9.56494 12.6685 9.57031 12.0463 9.54211C11.4739 9.50263 10.9761 9.6474 10.5778 10.1212C10.6637 9.96855 10.7544 9.81847 10.845 9.66854ZM27.9999 27.8889C27.9253 27.9001 27.8506 27.9136 27.7759 27.927L27.7759 27.927C27.5893 27.9606 27.4026 27.9941 27.2159 27.9941C23.8974 28.0029 20.5789 28 17.2603 27.9971C15.601 27.9956 13.9418 27.9941 12.2825 27.9941C11.4487 27.9941 11.4487 27.9941 11.4487 27.1255C11.4487 25.8023 11.4495 24.48 11.4503 23.1581V23.1579V23.1578V23.1576C11.4526 19.1937 11.4549 15.2335 11.4363 11.2658C11.4363 10.6604 11.5856 10.4761 12.1705 10.4893C15.9503 10.509 19.7302 10.5066 23.51 10.5041H23.5105C24.7705 10.5033 26.0306 10.5025 27.2906 10.5025C27.4411 10.5025 27.5915 10.5398 27.742 10.5771C27.828 10.5984 27.914 10.6197 27.9999 10.6341V27.8889ZM16.8909 18.2761L16.8901 18.2791L16.8893 18.2818C16.2766 20.3995 15.6611 22.5269 15.0327 24.6906C15.2321 24.6906 15.4262 24.6884 15.6163 24.6862H15.6165H15.6168H15.617C16.0791 24.6808 16.5173 24.6758 16.9492 24.7038C17.3225 24.7169 17.4968 24.6116 17.5839 24.2036C17.7067 23.6142 17.8725 23.0323 18.0378 22.4522L18.0379 22.452L18.038 22.4517L18.038 22.4515C18.0904 22.2676 18.1428 22.084 18.1937 21.9004C18.4511 21.9004 18.7011 21.9026 18.9462 21.9048C19.5424 21.9101 20.1093 21.9152 20.6826 21.8872C21.031 21.874 21.1555 22.0583 21.2301 22.3478L21.2882 22.5631L21.2882 22.5631L21.2882 22.5632L21.2882 22.5632C21.4434 23.1388 21.6007 23.7225 21.7777 24.2957C21.8275 24.4537 21.9892 24.6774 22.1012 24.6774C22.6216 24.7054 23.1419 24.7003 23.6888 24.695H23.6888H23.6889H23.6889C23.9137 24.6928 24.143 24.6906 24.3786 24.6906C24.3118 24.4598 24.2481 24.2391 24.1866 24.0254L24.1859 24.023C24.0757 23.6407 23.972 23.2811 23.8684 22.927C23.4515 21.5121 23.0377 20.0939 22.6239 18.6758C22.2101 17.2576 21.7963 15.8395 21.3795 14.4246C21.3678 14.3837 21.358 14.3405 21.3481 14.2969C21.2943 14.0598 21.2371 13.8081 20.8692 13.8192C20.2925 13.8366 19.7102 13.8309 19.1117 13.8251L19.1115 13.8251C18.8061 13.8222 18.4965 13.8192 18.1812 13.8192C17.7506 15.3047 17.3221 16.7857 16.8923 18.2715L16.8909 18.2761ZM10.9261 24.0721V21.6899H7.16785V18.3074H4.96517C4.96517 18.597 4.97132 18.8853 4.97743 19.1719C4.99076 19.797 5.00392 20.414 4.95272 21.0187C4.8905 21.8347 5.18917 22.3611 5.6994 22.9534C6.44607 23.8221 7.24252 24.2037 8.35008 24.0853C8.9376 24.0223 9.52511 24.0393 10.1126 24.0564C10.3838 24.0642 10.6549 24.0721 10.9261 24.0721ZM10.5658 10.1074C10.516 10.5549 10.4662 11.0024 10.404 11.5289L10.2481 11.3752C10.1198 11.249 9.99154 11.1227 9.83154 10.9629C10.1053 10.6734 10.3418 10.397 10.5658 10.1074ZM18.5671 20.0048H20.7449C20.5521 19.2877 20.3655 18.5903 20.1788 17.8929C19.9921 17.1952 19.8054 16.4975 19.6125 15.78C19.5162 16.1697 19.4217 16.5528 19.3283 16.9317C19.0714 17.973 18.8226 18.9819 18.5671 20.0048Z"/>
</mask>
<path fill-rule="evenodd" clip-rule="evenodd" d="M10.845 9.66854L10.8451 9.66849L10.8451 9.66848C11.0435 9.3402 11.2415 9.01265 11.3867 8.66029C11.7434 7.79815 12.0666 6.91836 12.4044 5.99924L12.4044 5.99917C12.4791 5.7958 12.5545 5.59052 12.6312 5.38307C12.6573 5.38307 12.7075 5.37843 12.7763 5.37208L12.7764 5.37207L12.7764 5.37207C12.8716 5.36328 13.0023 5.35122 13.1539 5.34358V3.422H9.47029C9.45784 3.23774 9.44851 3.06335 9.43917 2.88896C9.42984 2.71457 9.42051 2.54018 9.40806 2.35591H7.66583C7.64094 2.69811 7.61605 3.02715 7.57872 3.39568H3.88269V5.34358H10.6401C10.665 6.47547 9.75651 8.41022 8.71117 9.4763C8.26657 8.429 7.83017 7.4164 7.37533 6.36101L7.05605 5.61997C6.62049 5.72527 6.11026 5.85688 5.52537 6.01482C5.9236 7.77847 6.69516 9.33153 7.6285 10.9109C7.20629 11.2712 6.78408 11.6295 6.35974 11.9896L6.35919 11.9901C5.68305 12.5639 5.00147 13.1423 4.30581 13.7406L4.47844 14.0367L4.4785 14.0368C4.69009 14.4 4.91925 14.7934 5.20181 15.2674C6.08855 14.527 6.95428 13.8088 7.82001 13.0906L8.68628 12.3718C8.84579 12.5159 9.00895 12.6599 9.17348 12.8051L9.17352 12.8051L9.17356 12.8052C9.53528 13.1244 9.9036 13.4495 10.2543 13.7933C10.3663 13.9117 10.4534 14.1223 10.4534 14.2934C10.4658 15.32 10.4658 16.3598 10.4658 17.4522C10.392 17.4571 10.3215 17.4638 10.2532 17.4703C10.1375 17.4813 10.0279 17.4917 9.91829 17.4917H0.647115C0.511084 17.4917 0.369907 17.4536 0.230201 17.4159L0.23019 17.4159C0.152629 17.395 0.0755214 17.3742 0 17.3601V0.118454C0.0666326 0.106708 0.132164 0.092634 0.19725 0.0786553L0.19725 0.0786553C0.350964 0.0456412 0.502191 0.0131615 0.65956 0.0131615C5.71204 0.0131615 10.7645 0.0131615 15.817 0C16.3894 0 16.5637 0.184261 16.5512 0.789692C16.5326 2.95673 16.5349 5.1164 16.5372 7.31835V7.32023V7.32211V7.32401C16.538 8.06238 16.5388 8.80551 16.5388 9.55527H14.6597C14.4108 9.55527 14.1619 9.55742 13.913 9.55957H13.9129C13.2907 9.56494 12.6685 9.57031 12.0463 9.54211C11.4739 9.50263 10.9761 9.6474 10.5778 10.1212C10.6637 9.96855 10.7544 9.81847 10.845 9.66854ZM27.9999 27.8889C27.9253 27.9001 27.8506 27.9136 27.7759 27.927L27.7759 27.927C27.5893 27.9606 27.4026 27.9941 27.2159 27.9941C23.8974 28.0029 20.5789 28 17.2603 27.9971C15.601 27.9956 13.9418 27.9941 12.2825 27.9941C11.4487 27.9941 11.4487 27.9941 11.4487 27.1255C11.4487 25.8023 11.4495 24.48 11.4503 23.1581V23.1579V23.1578V23.1576C11.4526 19.1937 11.4549 15.2335 11.4363 11.2658C11.4363 10.6604 11.5856 10.4761 12.1705 10.4893C15.9503 10.509 19.7302 10.5066 23.51 10.5041H23.5105C24.7705 10.5033 26.0306 10.5025 27.2906 10.5025C27.4411 10.5025 27.5915 10.5398 27.742 10.5771C27.828 10.5984 27.914 10.6197 27.9999 10.6341V27.8889ZM16.8909 18.2761L16.8901 18.2791L16.8893 18.2818C16.2766 20.3995 15.6611 22.5269 15.0327 24.6906C15.2321 24.6906 15.4262 24.6884 15.6163 24.6862H15.6165H15.6168H15.617C16.0791 24.6808 16.5173 24.6758 16.9492 24.7038C17.3225 24.7169 17.4968 24.6116 17.5839 24.2036C17.7067 23.6142 17.8725 23.0323 18.0378 22.4522L18.0379 22.452L18.038 22.4517L18.038 22.4515C18.0904 22.2676 18.1428 22.084 18.1937 21.9004C18.4511 21.9004 18.7011 21.9026 18.9462 21.9048C19.5424 21.9101 20.1093 21.9152 20.6826 21.8872C21.031 21.874 21.1555 22.0583 21.2301 22.3478L21.2882 22.5631L21.2882 22.5631L21.2882 22.5632L21.2882 22.5632C21.4434 23.1388 21.6007 23.7225 21.7777 24.2957C21.8275 24.4537 21.9892 24.6774 22.1012 24.6774C22.6216 24.7054 23.1419 24.7003 23.6888 24.695H23.6888H23.6889H23.6889C23.9137 24.6928 24.143 24.6906 24.3786 24.6906C24.3118 24.4598 24.2481 24.2391 24.1866 24.0254L24.1859 24.023C24.0757 23.6407 23.972 23.2811 23.8684 22.927C23.4515 21.5121 23.0377 20.0939 22.6239 18.6758C22.2101 17.2576 21.7963 15.8395 21.3795 14.4246C21.3678 14.3837 21.358 14.3405 21.3481 14.2969C21.2943 14.0598 21.2371 13.8081 20.8692 13.8192C20.2925 13.8366 19.7102 13.8309 19.1117 13.8251L19.1115 13.8251C18.8061 13.8222 18.4965 13.8192 18.1812 13.8192C17.7506 15.3047 17.3221 16.7857 16.8923 18.2715L16.8909 18.2761ZM10.9261 24.0721V21.6899H7.16785V18.3074H4.96517C4.96517 18.597 4.97132 18.8853 4.97743 19.1719C4.99076 19.797 5.00392 20.414 4.95272 21.0187C4.8905 21.8347 5.18917 22.3611 5.6994 22.9534C6.44607 23.8221 7.24252 24.2037 8.35008 24.0853C8.9376 24.0223 9.52511 24.0393 10.1126 24.0564C10.3838 24.0642 10.6549 24.0721 10.9261 24.0721ZM10.5658 10.1074C10.516 10.5549 10.4662 11.0024 10.404 11.5289L10.2481 11.3752C10.1198 11.249 9.99154 11.1227 9.83154 10.9629C10.1053 10.6734 10.3418 10.397 10.5658 10.1074ZM18.5671 20.0048H20.7449C20.5521 19.2877 20.3655 18.5903 20.1788 17.8929C19.9921 17.1952 19.8054 16.4975 19.6125 15.78C19.5162 16.1697 19.4217 16.5528 19.3283 16.9317C19.0714 17.973 18.8226 18.9819 18.5671 20.0048Z" fill="#255C85"/>
<path d="M10.8451 9.66849L10.013 9.11379L10.0007 9.13232L9.98915 9.15138L10.8451 9.66849ZM10.845 9.66854L11.7008 10.1859L11.701 10.1857L10.845 9.66854ZM10.8451 9.66848L11.6771 10.2232L11.6894 10.2048L11.7009 10.1858L10.8451 9.66848ZM11.3867 8.66029L10.4627 8.27804L10.4622 8.27923L11.3867 8.66029ZM12.4044 5.99924L11.471 5.64026L11.4683 5.64729L11.4657 5.65435L12.4044 5.99924ZM12.4044 5.99917L13.3377 6.35815L13.3404 6.35112L13.343 6.34406L12.4044 5.99917ZM12.6312 5.38307V4.38307H11.9346L11.6932 5.03646L12.6312 5.38307ZM12.7763 5.37208L12.6874 4.37604L12.6844 4.37631L12.7763 5.37208ZM12.7764 5.37207L12.8653 6.36817L12.8759 6.36711L12.7764 5.37207ZM12.7764 5.37207L12.6845 4.37628L12.6769 4.37703L12.7764 5.37207ZM13.1539 5.34358L13.2042 6.34232L14.1539 6.29449V5.34358H13.1539ZM13.1539 3.422H14.1539V2.422H13.1539V3.422ZM9.47029 3.422L8.47256 3.48938L8.53554 4.422H9.47029V3.422ZM9.43917 2.88896L10.4377 2.83552L10.4377 2.83551L9.43917 2.88896ZM9.40806 2.35591L10.4058 2.28853L10.3428 1.35591H9.40806V2.35591ZM7.66583 2.35591V1.35591H6.73592L6.66846 2.28337L7.66583 2.35591ZM7.57872 3.39568V4.39568H8.48253L8.57363 3.49647L7.57872 3.39568ZM3.88269 3.39568V2.39568H2.88269V3.39568H3.88269ZM3.88269 5.34358H2.88269V6.34358H3.88269V5.34358ZM10.6401 5.34358L11.6398 5.3216L11.6183 4.34358H10.6401V5.34358ZM8.71117 9.4763L7.79068 9.86707L8.37618 11.2463L9.42519 10.1764L8.71117 9.4763ZM7.37533 6.36101L6.45694 6.7567L6.45698 6.75679L7.37533 6.36101ZM7.05605 5.61997L7.97443 5.22428L7.64075 4.44982L6.82107 4.64797L7.05605 5.61997ZM5.52537 6.01482L5.26468 5.0494L4.33867 5.29945L4.54993 6.23507L5.52537 6.01482ZM7.6285 10.9109L8.2776 11.6716L8.91711 11.1259L8.48941 10.4022L7.6285 10.9109ZM6.35974 11.9896L5.71268 11.2272L5.71221 11.2276L6.35974 11.9896ZM6.35919 11.9901L7.00625 12.7525L7.00672 12.7521L6.35919 11.9901ZM4.30581 13.7406L3.65375 12.9825L3.02265 13.5252L3.44192 14.2443L4.30581 13.7406ZM4.47844 14.0367L3.61456 14.5404L3.61556 14.5421L4.47844 14.0367ZM4.4785 14.0368L5.34256 13.5334L5.34138 13.5314L4.4785 14.0368ZM5.20181 15.2674L4.34284 15.7794L4.943 16.7862L5.84273 16.035L5.20181 15.2674ZM7.82001 13.0906L8.45848 13.8603L8.45857 13.8602L7.82001 13.0906ZM8.68628 12.3718L9.35641 11.6296L8.71389 11.0495L8.04772 11.6023L8.68628 12.3718ZM9.17348 12.8051L8.51171 13.5548L8.51855 13.5608L9.17348 12.8051ZM9.17352 12.8051L9.85397 12.0723L9.84141 12.0607L9.82845 12.0494L9.17352 12.8051ZM9.17356 12.8052L8.49311 13.538L8.50236 13.5465L8.51182 13.5549L9.17356 12.8052ZM10.2543 13.7933L10.9809 13.1063L10.9679 13.0925L10.9543 13.0792L10.2543 13.7933ZM10.4534 14.2934H9.45333L9.45348 14.3055L10.4534 14.2934ZM10.4658 17.4522L10.5318 18.45L11.4658 18.3883V17.4522H10.4658ZM10.2532 17.4703L10.3479 18.4658H10.3479L10.2532 17.4703ZM0.230201 17.4159L-0.210119 18.3137L-0.123473 18.3562L-0.0303 18.3814L0.230201 17.4159ZM0.23019 17.4159L0.67051 16.518L0.583854 16.4755L0.490671 16.4504L0.23019 17.4159ZM0 17.3601H-1V18.1907L-0.183496 18.3431L0 17.3601ZM0 0.118454L-0.173593 -0.866364L-1 -0.720693V0.118454H0ZM0.19725 0.0786553L0.407236 1.05636L0.423574 1.05285L0.439785 1.0488L0.19725 0.0786553ZM0.19725 0.0786553L-0.0127364 -0.899049L-0.0290743 -0.89554L-0.0452859 -0.891487L0.19725 0.0786553ZM15.817 0V-1L15.8144 -0.999997L15.817 0ZM16.5512 0.789692L15.5514 0.769138L15.5513 0.781097L16.5512 0.789692ZM16.5372 7.31835H17.5372V7.31729L16.5372 7.31835ZM16.5372 7.32401H15.5372L15.5372 7.32507L16.5372 7.32401ZM16.5388 9.55527V10.5553H17.5388V9.55527H16.5388ZM13.913 9.55957V10.5596L13.9216 10.5595L13.913 9.55957ZM13.9129 9.55957V8.55953L13.9043 8.55961L13.9129 9.55957ZM12.0463 9.54211L11.9775 10.5397L11.9893 10.5406L12.001 10.5411L12.0463 9.54211ZM10.5778 10.1212L9.70616 9.63115L11.3434 10.7646L10.5778 10.1212ZM27.7759 27.927L27.9404 28.9135L27.953 28.9112L27.7759 27.927ZM27.9999 27.8889L28.1493 28.8776L28.9999 28.7491V27.8889H27.9999ZM27.7759 27.927L27.6115 26.9405L27.5989 26.9428L27.7759 27.927ZM27.2159 27.9941V26.9941L27.2133 26.9941L27.2159 27.9941ZM17.2603 27.9971L17.2594 28.9971L17.2603 27.9971ZM11.4503 23.1581L12.4503 23.1587V23.1581H11.4503ZM11.4503 23.1576L10.4503 23.157V23.1576H11.4503ZM11.4363 11.2658H10.4363L10.4363 11.2705L11.4363 11.2658ZM12.1705 10.4893L12.148 11.489L12.1566 11.4892L12.1653 11.4893L12.1705 10.4893ZM23.51 10.5041V9.5041H23.5094L23.51 10.5041ZM23.5105 10.5041V11.5041H23.5112L23.5105 10.5041ZM27.742 10.5771L27.9827 9.60647L27.9827 9.60647L27.742 10.5771ZM27.9999 10.6341H28.9999V9.78722L28.1647 9.64773L27.9999 10.6341ZM16.8901 18.2791L17.8507 18.5571L17.8508 18.5565L16.8901 18.2791ZM16.8909 18.2761L15.9304 17.9978L15.9302 17.9987L16.8909 18.2761ZM16.8893 18.2818L15.9287 18.0038L15.9287 18.0039L16.8893 18.2818ZM15.0327 24.6906L14.0724 24.4117L13.701 25.6906H15.0327V24.6906ZM15.6163 24.6862V23.6861L15.6047 23.6862L15.6163 24.6862ZM15.617 24.6862V25.6862L15.6285 25.6861L15.617 24.6862ZM16.9492 24.7038L16.8846 25.7017L16.8993 25.7026L16.914 25.7031L16.9492 24.7038ZM17.5839 24.2036L18.5618 24.4124L18.5629 24.4076L17.5839 24.2036ZM18.0378 22.4522L18.9995 22.7263L19.0001 22.7242L18.0378 22.4522ZM18.038 22.4515L17.0763 22.1774L17.0757 22.1795L18.038 22.4515ZM18.1937 21.9004V20.9004H17.4331L17.23 21.6333L18.1937 21.9004ZM18.9462 21.9048L18.9551 20.9048H18.9551L18.9462 21.9048ZM20.6826 21.8872L20.6448 20.8878L20.6338 20.8884L20.6826 21.8872ZM21.2301 22.3478L20.2617 22.5976L20.2646 22.6083L21.2301 22.3478ZM21.2882 22.5631L20.3227 22.8235L20.3263 22.837L20.3303 22.8504L21.2882 22.5631ZM21.2882 22.5632L22.2538 22.303L22.2501 22.2894L22.246 22.2759L21.2882 22.5632ZM21.7777 24.2957L20.8222 24.5908L20.8239 24.5963L21.7777 24.2957ZM22.1012 24.6774L22.1549 23.6789L22.1281 23.6774H22.1012V24.6774ZM23.6888 24.695V23.695L23.6791 23.6951L23.6888 24.695ZM23.6889 24.695V25.6951L23.6987 25.695L23.6889 24.695ZM24.3786 24.6906V25.6906H25.7091L25.3392 24.4126L24.3786 24.6906ZM24.1866 24.0254L23.2255 24.3017L23.2257 24.3024L24.1866 24.0254ZM24.1859 24.023L25.147 23.7468L25.1468 23.7461L24.1859 24.023ZM23.8684 22.927L24.8281 22.6461L24.8276 22.6443L23.8684 22.927ZM21.3795 14.4246L20.4174 14.6975L20.4202 14.7072L21.3795 14.4246ZM21.3481 14.2969L22.3233 14.0753L22.3233 14.0753L21.3481 14.2969ZM20.8692 13.8192L20.839 12.8196L20.8692 13.8192ZM19.1117 13.8251L19.0995 14.8251L19.102 14.8251L19.1117 13.8251ZM19.1115 13.8251L19.1237 12.8252L19.1212 12.8252L19.1115 13.8251ZM18.1812 13.8192V12.8192H17.4299L17.2208 13.5408L18.1812 13.8192ZM16.8923 18.2715L17.8527 18.5499L17.8529 18.5495L16.8923 18.2715ZM10.9261 21.6899H11.9261V20.6899H10.9261V21.6899ZM10.9261 24.0721V25.0721H11.9261V24.0721H10.9261ZM7.16785 21.6899H6.16785V22.6899H7.16785V21.6899ZM7.16785 18.3074H8.16785V17.3074H7.16785V18.3074ZM4.96517 18.3074V17.3074H3.96517V18.3074H4.96517ZM4.97743 19.1719L3.97766 19.1932L4.97743 19.1719ZM4.95272 21.0187L3.95626 20.9343L3.95562 20.9426L4.95272 21.0187ZM5.6994 22.9534L6.45775 22.3015L6.45703 22.3007L5.6994 22.9534ZM8.35008 24.0853L8.45643 25.0796L8.45676 25.0796L8.35008 24.0853ZM10.1126 24.0564L10.1417 23.0568H10.1417L10.1126 24.0564ZM10.404 11.5289L9.70216 12.2412L11.1573 13.6749L11.3971 11.6462L10.404 11.5289ZM10.5658 10.1074L11.5596 10.218L11.9532 6.67965L9.77483 9.49553L10.5658 10.1074ZM10.2481 11.3752L10.9499 10.6629L10.9496 10.6626L10.2481 11.3752ZM9.83154 10.9629L9.10492 10.2759L8.43647 10.9828L9.12484 11.6704L9.83154 10.9629ZM20.7449 20.0048V21.0048H22.0494L21.7106 19.7451L20.7449 20.0048ZM18.5671 20.0048L17.5969 19.7625L17.2867 21.0048H18.5671V20.0048ZM20.1788 17.8929L19.2128 18.1514L19.2128 18.1514L20.1788 17.8929ZM19.6125 15.78L20.5782 15.5203L18.6417 15.5401L19.6125 15.78ZM19.3283 16.9317L20.2992 17.1711L19.3283 16.9317ZM9.98915 9.15138L9.98912 9.15142L11.701 10.1857L11.701 10.1856L9.98915 9.15138ZM10.013 9.11378L10.013 9.11379L11.6771 10.2232L11.6771 10.2232L10.013 9.11378ZM10.4622 8.27923C10.351 8.54893 10.1946 8.81153 9.98928 9.15116L11.7009 10.1858C11.8925 9.86886 12.132 9.47636 12.3113 9.04135L10.4622 8.27923ZM11.4657 5.65435C11.1267 6.57688 10.8103 7.43761 10.4627 8.27804L12.3108 9.04254C12.6764 8.15868 13.0065 7.25983 13.343 6.34413L11.4657 5.65435ZM11.471 5.64019L11.471 5.64026L13.3377 6.35822L13.3377 6.35815L11.471 5.64019ZM11.6932 5.03646C11.6162 5.24491 11.5404 5.45105 11.4657 5.65428L13.343 6.34406C13.4178 6.14056 13.4929 5.93612 13.5692 5.72968L11.6932 5.03646ZM12.6844 4.37631C12.6669 4.37793 12.6522 4.37929 12.6389 4.38048C12.6256 4.38168 12.6156 4.38253 12.608 4.38314C12.6001 4.38377 12.5976 4.3839 12.5988 4.38383C12.5996 4.38379 12.6027 4.38362 12.6074 4.38346C12.6119 4.3833 12.6202 4.38307 12.6312 4.38307V6.38307C12.7165 6.38307 12.8302 6.37135 12.8683 6.36784L12.6844 4.37631ZM12.6875 4.37603L12.6874 4.37604L12.8653 6.36812L12.8653 6.36811L12.6875 4.37603ZM12.6769 4.37703L12.6769 4.37703L12.8759 6.36711L12.8759 6.36711L12.6769 4.37703ZM13.1036 4.34485C12.9291 4.35364 12.78 4.36748 12.6845 4.3763L12.8684 6.36783C12.9632 6.35908 13.0754 6.3488 13.2042 6.34232L13.1036 4.34485ZM12.1539 3.422V5.34358H14.1539V3.422H12.1539ZM9.47029 4.422H13.1539V2.422H9.47029V4.422ZM8.4406 2.9424C8.44989 3.11592 8.45957 3.29709 8.47256 3.48938L10.468 3.35461C10.4561 3.17838 10.4471 3.01077 10.4377 2.83552L8.4406 2.9424ZM8.41034 2.4233C8.42224 2.59953 8.43122 2.76714 8.4406 2.9424L10.4377 2.83551C10.4285 2.66199 10.4188 2.48082 10.4058 2.28853L8.41034 2.4233ZM7.66583 3.35591H9.40806V1.35591H7.66583V3.35591ZM8.57363 3.49647C8.61248 3.11295 8.63821 2.772 8.66319 2.42846L6.66846 2.28337C6.64367 2.62422 6.61963 2.94135 6.58381 3.29488L8.57363 3.49647ZM3.88269 4.39568H7.57872V2.39568H3.88269V4.39568ZM4.88269 5.34358V3.39568H2.88269V5.34358H4.88269ZM10.6401 4.34358H3.88269V6.34358H10.6401V4.34358ZM9.42519 10.1764C10.045 9.54433 10.5926 8.69274 10.9828 7.85823C11.3634 7.04445 11.6572 6.11292 11.6398 5.3216L9.64031 5.36557C9.6478 5.70614 9.4999 6.30792 9.17111 7.01102C8.85202 7.69337 8.42269 8.3422 7.99715 8.77618L9.42519 10.1764ZM6.45698 6.75679C6.91199 7.81257 7.34732 8.82268 7.79068 9.86707L9.63166 9.08554C9.18582 8.03531 8.74835 7.02024 8.29367 5.96523L6.45698 6.75679ZM6.13766 6.01567L6.45694 6.7567L8.29371 5.96532L7.97443 5.22428L6.13766 6.01567ZM5.78606 6.98024C6.36516 6.82387 6.86645 6.69461 7.29102 6.59198L6.82107 4.64797C6.37453 4.75592 5.85537 4.8899 5.26468 5.0494L5.78606 6.98024ZM8.48941 10.4022C7.57686 8.85795 6.86543 7.40936 6.50081 5.79457L4.54993 6.23507C4.98176 8.14757 5.81345 9.8051 6.76759 11.4197L8.48941 10.4022ZM7.0068 12.7521C7.43097 12.3921 7.8542 12.0329 8.2776 11.6716L6.97939 10.1502C6.55838 10.5095 6.1372 10.8669 5.71268 11.2272L7.0068 12.7521ZM7.00672 12.7521L7.00727 12.7517L5.71221 11.2276L5.71165 11.2281L7.00672 12.7521ZM4.95786 14.4988C5.65064 13.903 6.32974 13.3267 7.00625 12.7525L5.71213 11.2276C5.03635 11.8012 4.3523 12.3817 3.65375 12.9825L4.95786 14.4988ZM5.34232 13.533L5.16969 13.2369L3.44192 14.2443L3.61456 14.5404L5.34232 13.533ZM5.34138 13.5314L5.34132 13.5313L3.61556 14.5421L3.61562 14.5422L5.34138 13.5314ZM6.06078 14.7554C5.78106 14.2861 5.55415 13.8966 5.34256 13.5334L3.61444 14.5402C3.82604 14.9034 4.05745 15.3006 4.34284 15.7794L6.06078 14.7554ZM7.18154 12.321C6.31599 13.039 5.44904 13.7582 4.56089 14.4998L5.84273 16.035C6.72805 15.2958 7.59256 14.5786 8.45848 13.8603L7.18154 12.321ZM8.04772 11.6023L7.18145 12.3211L8.45857 13.8602L9.32484 13.1414L8.04772 11.6023ZM9.83522 12.0554C9.66995 11.9095 9.51104 11.7692 9.35641 11.6296L8.01615 13.1141C8.18054 13.2625 8.34796 13.4103 8.51173 13.5548L9.83522 12.0554ZM9.82845 12.0494L9.82841 12.0494L8.51855 13.5608L8.51859 13.5608L9.82845 12.0494ZM9.85401 12.0724L9.85397 12.0723L8.49307 13.5379L8.49311 13.538L9.85401 12.0724ZM10.9543 13.0792C10.5819 12.7141 10.1938 12.3719 9.83531 12.0554L8.51182 13.5549C8.87672 13.877 9.22534 14.185 9.55428 14.5074L10.9543 13.0792ZM11.4534 14.2934C11.4534 13.8609 11.2644 13.406 10.9809 13.1063L9.52767 14.4803C9.50023 14.4513 9.48569 14.4291 9.47975 14.4194C9.47323 14.4088 9.47002 14.4016 9.46824 14.3972C9.46647 14.3928 9.46364 14.385 9.46083 14.372C9.45821 14.36 9.4534 14.3334 9.4534 14.2934H11.4534ZM11.4658 17.4522C11.4658 16.3609 11.4659 15.315 11.4533 14.2813L9.45348 14.3055C9.46584 15.325 9.46585 16.3586 9.46585 17.4522H11.4658ZM10.3479 18.4658C10.4179 18.4591 10.4745 18.4538 10.5318 18.45L10.3999 16.4544C10.3095 16.4603 10.2251 16.4684 10.1586 16.4747L10.3479 18.4658ZM9.91829 18.4917C10.0835 18.4917 10.2408 18.4759 10.3479 18.4658L10.1586 16.4747C10.0341 16.4866 9.97229 16.4917 9.91829 16.4917V18.4917ZM0.647115 18.4917H9.91829V16.4917H0.647115V18.4917ZM-0.0303 18.3814C0.0804818 18.4113 0.354196 18.4917 0.647115 18.4917V16.4917C0.669529 16.4917 0.671529 16.4945 0.639966 16.4881C0.605946 16.4812 0.566018 16.4707 0.490703 16.4504L-0.0303 18.3814ZM-0.210131 18.3137L-0.210119 18.3137L0.670522 16.518L0.67051 16.518L-0.210131 18.3137ZM-0.183496 18.3431C-0.153668 18.3486 -0.115379 18.3584 -0.0302913 18.3814L0.490671 16.4504C0.420636 16.4315 0.304711 16.3997 0.183496 16.377L-0.183496 18.3431ZM-1 0.118454V17.3601H1V0.118454H-1ZM-0.0127365 -0.899049C-0.0806874 -0.884455 -0.128213 -0.874363 -0.173593 -0.866364L0.173593 1.10327C0.261478 1.08778 0.345016 1.06972 0.407236 1.05636L-0.0127365 -0.899049ZM-0.0452859 -0.891487L-0.045286 -0.891487L0.439785 1.0488L0.439785 1.0488L-0.0452859 -0.891487ZM0.65956 -0.986838C0.378597 -0.986838 0.124052 -0.928428 -0.0127364 -0.899049L0.407236 1.05636C0.577877 1.01971 0.625786 1.01316 0.65956 1.01316V-0.986838ZM15.8144 -0.999997C10.7634 -0.986839 5.71226 -0.986838 0.65956 -0.986838V1.01316C5.71182 1.01316 10.7656 1.01316 15.8196 0.999997L15.8144 -0.999997ZM17.551 0.810244C17.5578 0.481225 17.5386 -0.0812534 17.1347 -0.514279C16.7158 -0.963373 16.1445 -1 15.817 -1V1C15.9162 1 15.934 1.00914 15.9083 1.00205C15.8703 0.991525 15.7687 0.95343 15.6722 0.849898C15.5783 0.749214 15.552 0.65393 15.5476 0.634788C15.5452 0.624259 15.5537 0.657663 15.5514 0.76914L17.551 0.810244ZM17.5372 7.31729C17.5349 5.11452 17.5326 2.95969 17.5512 0.798287L15.5513 0.781097C15.5326 2.95377 15.5349 5.11827 15.5372 7.3194L17.5372 7.31729ZM17.5372 7.32023V7.31835H15.5372V7.32023H17.5372ZM17.5372 7.32211V7.32023H15.5372V7.32211H17.5372ZM17.5372 7.32401V7.32211H15.5372V7.32401H17.5372ZM17.5388 9.55527C17.5388 8.80489 17.538 8.06124 17.5372 7.32295L15.5372 7.32507C15.538 8.06352 15.5388 8.80613 15.5388 9.55527H17.5388ZM14.6597 10.5553H16.5388V8.55527H14.6597V10.5553ZM13.9216 10.5595C14.1712 10.5574 14.4158 10.5553 14.6597 10.5553V8.55527C14.4057 8.55527 14.1525 8.55746 13.9043 8.55961L13.9216 10.5595ZM13.9129 10.5596H13.913V8.55957H13.9129V10.5596ZM12.001 10.5411C12.6547 10.5707 13.3038 10.5649 13.9216 10.5595L13.9043 8.55961C13.2776 8.56502 12.6824 8.56991 12.0916 8.54314L12.001 10.5411ZM11.3434 10.7646C11.4914 10.5885 11.6476 10.517 11.9775 10.5397L12.1151 8.54448C11.3001 8.48827 10.4607 8.70631 9.81232 9.47782L11.3434 10.7646ZM9.98924 9.15122C9.89998 9.29889 9.80102 9.46244 9.70616 9.63115L11.4495 10.6113C11.5263 10.4747 11.6088 10.338 11.7008 10.1859L9.98924 9.15122ZM27.953 28.9112C28.03 28.8973 28.0908 28.8865 28.1493 28.8776L27.8505 26.9001C27.7597 26.9138 27.6712 26.9298 27.5989 26.9428L27.953 28.9112ZM27.9403 28.9134L27.9403 28.9134L27.6116 26.9406L27.6115 26.9406L27.9403 28.9134ZM27.2159 28.9941C27.5071 28.9941 27.7823 28.9419 27.9529 28.9112L27.5989 26.9428C27.3962 26.9792 27.2981 26.9941 27.2159 26.9941V28.9941ZM17.2594 28.9971C20.5777 29 23.898 29.0029 27.2186 28.9941L27.2133 26.9941C23.8968 27.0029 20.58 27 17.2612 26.9971L17.2594 28.9971ZM12.2825 28.9941C13.9413 28.9941 15.6001 28.9956 17.2594 28.9971L17.2612 26.9971C15.602 26.9956 13.9423 26.9941 12.2825 26.9941V28.9941ZM10.4487 27.1255C10.4487 27.3192 10.4474 27.5459 10.4674 27.7337C10.4863 27.9106 10.5409 28.2752 10.8315 28.578C11.1302 28.8892 11.5004 28.9525 11.6855 28.9739C11.8739 28.9958 12.0995 28.9941 12.2825 28.9941V26.9941C12.1751 26.9941 12.0955 26.9941 12.0286 26.9927C11.9606 26.9912 11.9283 26.9887 11.9155 26.9872C11.9008 26.9855 11.9398 26.9882 12.0035 27.012C12.0761 27.0393 12.1787 27.0934 12.2744 27.1931C12.3689 27.2915 12.4159 27.392 12.4379 27.4555C12.4572 27.5114 12.4583 27.5425 12.4561 27.5216C12.4541 27.5029 12.4516 27.4648 12.4502 27.3926C12.4488 27.3213 12.4487 27.237 12.4487 27.1255H10.4487ZM10.4503 23.1575C10.4495 24.4794 10.4487 25.802 10.4487 27.1255H12.4487C12.4487 25.8027 12.4495 24.4806 12.4503 23.1587L10.4503 23.1575ZM10.4503 23.1579V23.1581H12.4503V23.1579H10.4503ZM10.4503 23.1578V23.1579H12.4503V23.1578H10.4503ZM10.4503 23.1576V23.1578H12.4503V23.1576H10.4503ZM10.4363 11.2705C10.4549 15.2351 10.4526 19.1927 10.4503 23.157L12.4503 23.1582C12.4526 19.1947 12.4549 15.2318 12.4363 11.2611L10.4363 11.2705ZM12.193 9.48955C11.8668 9.48221 11.2762 9.5031 10.848 9.96869C10.4515 10.3999 10.4363 10.9657 10.4363 11.2658H12.4363C12.4363 11.1457 12.4447 11.1052 12.4441 11.108C12.4418 11.1179 12.4178 11.2162 12.3201 11.3225C12.2167 11.4349 12.1049 11.4763 12.0593 11.4881C12.0288 11.496 12.0443 11.4867 12.148 11.489L12.193 9.48955ZM23.5094 9.5041C19.729 9.50657 15.9521 9.50904 12.1757 9.48931L12.1653 11.4893C15.9486 11.509 19.7313 11.5066 23.5107 11.5041L23.5094 9.5041ZM23.5105 9.5041H23.51V11.5041H23.5105V9.5041ZM27.2906 9.50246C26.0302 9.50246 24.7698 9.50328 23.5099 9.5041L23.5112 11.5041C24.7713 11.5033 26.031 11.5025 27.2906 11.5025V9.50246ZM27.9827 9.60647C27.8554 9.57492 27.5845 9.50246 27.2906 9.50246V11.5025C27.2848 11.5025 27.2955 11.5019 27.3335 11.5089C27.3747 11.5166 27.421 11.5278 27.5013 11.5477L27.9827 9.60647ZM28.1647 9.64773C28.1235 9.64086 28.0754 9.62947 27.9827 9.60647L27.5013 11.5477C27.5806 11.5673 27.7044 11.5986 27.8352 11.6204L28.1647 9.64773ZM28.9999 27.8889V10.6341H26.9999V27.8889H28.9999ZM17.8508 18.5565L17.8517 18.5535L15.9302 17.9987L15.9293 18.0017L17.8508 18.5565ZM17.8499 18.5597L17.8507 18.5571L15.9295 18.0012L15.9287 18.0038L17.8499 18.5597ZM15.9931 24.9695C16.6216 22.8052 17.2372 20.6774 17.8499 18.5597L15.9287 18.0039C15.316 20.1217 14.7006 22.2486 14.0724 24.4117L15.9931 24.9695ZM15.6047 23.6862C15.4139 23.6884 15.2255 23.6906 15.0327 23.6906V25.6906C15.2388 25.6906 15.4386 25.6883 15.6278 25.6861L15.6047 23.6862ZM15.6165 23.6862H15.6163V25.6862H15.6165V23.6862ZM15.6168 23.6862H15.6165V25.6862H15.6168V23.6862ZM15.617 23.6862H15.6168V25.6862H15.617V23.6862ZM17.0138 23.7058C16.5372 23.675 16.0603 23.681 15.6055 23.6862L15.6285 25.6861C16.0979 25.6807 16.4973 25.6766 16.8846 25.7017L17.0138 23.7058ZM16.6059 23.9948C16.5811 24.1111 16.5876 23.951 16.7747 23.811C16.8645 23.7438 16.9489 23.7179 16.9927 23.7089C17.0287 23.7015 17.0343 23.7061 16.9844 23.7044L16.914 25.7031C17.1651 25.712 17.5913 25.698 17.9731 25.4122C18.3623 25.1209 18.4996 24.7041 18.5618 24.4124L16.6059 23.9948ZM17.0761 22.1782C16.9125 22.7523 16.7363 23.3689 16.6049 23.9997L18.5629 24.4076C18.6771 23.8594 18.8325 23.3123 18.9995 22.7263L17.0761 22.1782ZM17.0756 22.18L17.0755 22.1803L19.0001 22.7242L19.0002 22.7239L17.0756 22.18ZM17.0757 22.1798L17.0756 22.18L19.0002 22.7239L19.0003 22.7237L17.0757 22.1798ZM17.0757 22.1795L17.0757 22.1798L19.0003 22.7237L19.0003 22.7234L17.0757 22.1795ZM17.23 21.6333C17.1802 21.8128 17.1289 21.993 17.0763 22.1774L18.9997 22.7255C19.052 22.5423 19.1053 22.3552 19.1573 22.1674L17.23 21.6333ZM18.9551 20.9048C18.7107 20.9026 18.4562 20.9004 18.1937 20.9004V22.9004C18.4459 22.9004 18.6915 22.9025 18.9373 22.9047L18.9551 20.9048ZM20.6338 20.8884C20.0942 20.9147 19.5562 20.9102 18.9551 20.9048L18.9373 22.9047C19.5285 22.91 20.1244 22.9156 20.7313 22.886L20.6338 20.8884ZM22.1984 22.0981C22.1478 21.9018 22.0405 21.5599 21.7514 21.2825C21.4213 20.9656 21.011 20.8741 20.6448 20.8879L20.7203 22.8865C20.7191 22.8865 20.6713 22.8884 20.5976 22.8646C20.5174 22.8387 20.4356 22.7917 20.3666 22.7255C20.302 22.6635 20.2708 22.6061 20.2598 22.583C20.2499 22.5623 20.2525 22.5613 20.2618 22.5975L22.1984 22.0981ZM22.2537 22.3026L22.1956 22.0874L20.2646 22.6083L20.3227 22.8235L22.2537 22.3026ZM22.246 22.2758L22.246 22.2757L20.3303 22.8504L20.3304 22.8505L22.246 22.2758ZM22.246 22.2758L22.246 22.2758L20.3304 22.8505L20.3304 22.8505L22.246 22.2758ZM22.246 22.2759L22.246 22.2758L20.3304 22.8505L20.3304 22.8506L22.246 22.2759ZM22.7332 24.0007C22.5624 23.4477 22.4097 22.8815 22.2538 22.303L20.3227 22.8235C20.477 23.3961 20.639 23.9973 20.8222 24.5908L22.7332 24.0007ZM22.1012 23.6774C22.2524 23.6774 22.3711 23.7146 22.4458 23.7461C22.521 23.7778 22.5744 23.8133 22.6051 23.836C22.664 23.8796 22.6923 23.9153 22.6964 23.9203C22.6997 23.9245 22.7131 23.9371 22.7314 23.9952L20.8239 24.5963C20.892 24.8123 21.0112 25.0158 21.1359 25.1713C21.2006 25.252 21.2935 25.3536 21.4158 25.444C21.5175 25.5193 21.7599 25.6774 22.1012 25.6774V23.6774ZM23.6791 23.6951C23.1265 23.7005 22.6382 23.7049 22.1549 23.6789L22.0475 25.676C22.605 25.706 23.1573 25.7002 23.6985 25.695L23.6791 23.6951ZM23.6888 23.695H23.6888V25.695H23.6888V23.695ZM23.6889 23.695H23.6888V25.695H23.6889V23.695ZM23.6889 23.695H23.6889V25.695H23.6889V23.695ZM24.3786 23.6906C24.1373 23.6906 23.9033 23.6929 23.6792 23.6951L23.6987 25.695C23.9241 25.6928 24.1486 25.6906 24.3786 25.6906V23.6906ZM23.2257 24.3024C23.2873 24.516 23.351 24.7372 23.418 24.9686L25.3392 24.4126C25.2725 24.1823 25.209 23.9621 25.1474 23.7485L23.2257 24.3024ZM23.2248 24.2993L23.2255 24.3017L25.1477 23.7492L25.147 23.7468L23.2248 24.2993ZM22.9086 23.2078C23.0116 23.5597 23.1147 23.9173 23.225 24.3L25.1468 23.7461C25.0367 23.3641 24.9324 23.0025 24.8281 22.6461L22.9086 23.2078ZM21.6639 18.9559C22.0777 20.3738 22.4918 21.7932 22.9091 23.2096L24.8276 22.6443C24.4111 21.2309 23.9977 19.814 23.5839 18.3957L21.6639 18.9559ZM20.4202 14.7072C20.8367 16.1206 21.2501 17.5375 21.6639 18.9559L23.5839 18.3957C23.1702 16.9777 22.756 15.5583 22.3387 14.142L20.4202 14.7072ZM20.373 14.5184C20.3817 14.5569 20.3973 14.6265 20.4174 14.6975L22.3415 14.1517C22.3384 14.1408 22.3344 14.1241 22.3233 14.0753L20.373 14.5184ZM20.8994 14.8187C20.8777 14.8194 20.7946 14.818 20.6856 14.7696C20.5692 14.7179 20.4797 14.6375 20.4206 14.5571C20.3939 14.5208 20.377 14.4894 20.3671 14.4686C20.3574 14.4482 20.353 14.435 20.3524 14.4333C20.3519 14.4317 20.3535 14.4365 20.3574 14.4519C20.3616 14.4683 20.3658 14.4869 20.373 14.5184L22.3233 14.0753C22.3081 14.0085 22.2459 13.6635 22.0322 13.3727C21.7401 12.9752 21.2968 12.8058 20.839 12.8196L20.8994 14.8187ZM19.102 14.8251C19.6969 14.8309 20.2993 14.8368 20.8994 14.8187L20.839 12.8196C20.2856 12.8363 19.7235 12.831 19.1214 12.8252L19.102 14.8251ZM19.0993 14.8251L19.0995 14.8251L19.1239 12.8252L19.1237 12.8252L19.0993 14.8251ZM18.1812 14.8192C18.4909 14.8192 18.7957 14.8221 19.1018 14.8251L19.1212 12.8252C18.8166 12.8222 18.5021 12.8192 18.1812 12.8192V14.8192ZM17.8529 18.5495C18.2827 17.0636 18.7112 15.5828 19.1417 14.0976L17.2208 13.5408C16.7901 15.0266 16.3615 16.5079 15.9316 17.9936L17.8529 18.5495ZM17.8514 18.5545L17.8527 18.5499L15.9318 17.9932L15.9304 17.9978L17.8514 18.5545ZM9.9261 21.6899V24.0721H11.9261V21.6899H9.9261ZM7.16785 22.6899H10.9261V20.6899H7.16785V22.6899ZM6.16785 18.3074V21.6899H8.16785V18.3074H6.16785ZM4.96517 19.3074H7.16785V17.3074H4.96517V19.3074ZM5.9772 19.1506C5.97105 18.8623 5.96517 18.5846 5.96517 18.3074H3.96517C3.96517 18.6094 3.97158 18.9083 3.97766 19.1932L5.9772 19.1506ZM5.94916 21.103C6.00559 20.4366 5.99033 19.766 5.9772 19.1506L3.97766 19.1932C3.9912 19.8281 4.00225 20.3915 3.95629 20.9343L5.94916 21.103ZM6.45703 22.3007C6.03311 21.8086 5.91611 21.5369 5.94983 21.0947L3.95562 20.9426C3.86489 22.1324 4.34523 22.9136 4.94177 23.6061L6.45703 22.3007ZM8.24374 23.091C7.83589 23.1346 7.53909 23.0826 7.29144 22.9739C7.03571 22.8616 6.76493 22.6589 6.45774 22.3015L4.94105 23.6052C5.38053 24.1165 5.88132 24.539 6.48737 24.8051C7.1015 25.0748 7.75672 25.1545 8.45643 25.0796L8.24374 23.091ZM10.1417 23.0568C9.56535 23.0401 8.90979 23.0195 8.2434 23.091L8.45676 25.0796C8.9654 25.025 9.48487 25.0386 10.0836 25.056L10.1417 23.0568ZM10.9261 23.0721C10.6719 23.0721 10.4152 23.0647 10.1417 23.0568L10.0836 25.056C10.3523 25.0638 10.638 25.0721 10.9261 25.0721V23.0721ZM11.3971 11.6462C11.4598 11.116 11.5099 10.6653 11.5596 10.218L9.5719 9.99687C9.52211 10.4445 9.47268 10.8889 9.4109 11.4115L11.3971 11.6462ZM9.54622 12.0876L9.70216 12.2412L11.1058 10.8165L10.9499 10.6629L9.54622 12.0876ZM9.12484 11.6704C9.2877 11.8331 9.41828 11.9616 9.54656 12.0879L10.9496 10.6626C10.8213 10.5363 10.6954 10.4124 10.5382 10.2554L9.12484 11.6704ZM9.77483 9.49553C9.57178 9.758 9.35691 10.0094 9.10492 10.2759L10.5582 11.65C10.8537 11.3374 11.1118 11.0359 11.3567 10.7193L9.77483 9.49553ZM20.7449 19.0048H18.5671V21.0048H20.7449V19.0048ZM19.2128 18.1514C19.3994 18.8487 19.5862 19.5467 19.7792 20.2645L21.7106 19.7451C21.518 19.0287 21.3315 18.3319 21.1449 17.6344L19.2128 18.1514ZM18.6468 16.0397C18.8395 16.7565 19.0261 17.4536 19.2128 18.1514L21.1449 17.6344C20.9582 16.9368 20.7713 16.2385 20.5782 15.5203L18.6468 16.0397ZM20.2992 17.1711C20.3926 16.7922 20.4871 16.4093 20.5833 16.0198L18.6417 15.5401C18.5453 15.9301 18.4508 16.3134 18.3574 16.6922L20.2992 17.1711ZM19.5373 20.2471C19.7933 19.2225 20.0424 18.2122 20.2992 17.1711L18.3574 16.6922C18.1005 17.7338 17.852 18.7412 17.5969 19.7625L19.5373 20.2471Z" fill="#255C85" mask="url(#path-1-inside-1)"/>
</svg>
