<svg width="27" height="26" viewBox="0 0 27 26" fill="none" xmlns="http://www.w3.org/2000/svg">
<path d="M7.12597 26C6.76869 25.9003 6.39261 25.838 6.05884 25.6926C4.76606 25.1195 4.14083 24.1684 4.13613 22.8974C4.13143 21.5268 4.13613 20.1562 4.13613 18.7856C4.13613 18.5364 4.13613 18.2872 4.13613 18.0214C4.88829 18.0214 5.62635 18.0214 6.38791 18.0214C6.38791 18.1086 6.38791 18.1917 6.38791 18.2748C6.38791 19.799 6.38791 21.3192 6.38791 22.8434C6.38791 23.6035 6.83451 24.0022 7.68539 24.0022C12.8659 24.0022 18.0417 24.0022 23.2222 24.0022C24.059 24.0022 24.5103 23.5952 24.5103 22.8559C24.5103 16.2853 24.5103 9.71885 24.5103 3.14824C24.5103 2.40895 24.0543 2.00192 23.2175 2.00192C18.037 2.00192 12.8612 2.00192 7.68069 2.00192C6.8251 2.00192 6.38321 2.40064 6.38321 3.1607C6.38321 4.68498 6.38321 6.20511 6.38321 7.72939C6.38321 7.81246 6.38321 7.89137 6.38321 7.99936C6.07294 7.99936 5.78148 7.99936 5.49472 7.99936C5.10454 7.99936 4.70965 7.99521 4.31947 7.99936C4.17844 8.00351 4.12673 7.96613 4.12673 7.83738C4.13143 6.1885 4.10322 4.54377 4.14553 2.89489C4.17844 1.44952 5.33959 0.311502 6.94263 0.0456869C7.00374 0.0373802 7.06015 0.0166134 7.12127 0C12.6826 0 18.2485 0 23.8098 0C23.8756 0.0166134 23.9415 0.0415335 24.0073 0.0539936C24.4868 0.149521 24.9381 0.299042 25.333 0.556549C26.3108 1.19617 26.7621 2.06006 26.7621 3.12748C26.7574 7.28498 26.7621 11.4425 26.7621 15.6C26.7621 18.0297 26.7668 20.4553 26.7621 22.885C26.7621 24.3262 25.8501 25.4434 24.3504 25.8629C24.1718 25.9128 23.9932 25.9543 23.8145 25.9958C18.2485 26 12.6873 26 7.12597 26Z" fill="white"/>
<path d="M16.8582 13.004C16.4659 13.3393 16.1173 13.6407 15.7599 13.9422C15.1672 14.4431 14.5701 14.9355 13.9774 15.4365C13.2103 16.0817 12.4433 16.7355 11.6762 17.3808C10.8656 18.0643 10.0419 18.7393 9.24432 19.4397C8.9959 19.6562 8.76055 19.7369 8.45548 19.6265C8.13297 19.5119 8.01965 19.2487 7.96735 18.9515C7.93685 18.786 7.93249 18.6119 7.93249 18.4463C7.92813 17.7459 7.93249 17.0454 7.93249 16.3449C7.93249 16.26 7.93249 16.1794 7.93249 16.0775C7.81918 16.0775 7.73201 16.0775 7.6492 16.0775C5.70979 16.0775 3.77037 16.0605 1.83096 16.086C0.994177 16.0945 0.571428 15.5596 0.584502 14.8676C0.610652 13.6365 0.610652 12.4054 0.584502 11.1743C0.567069 10.4653 0.989818 9.93043 1.83532 9.94316C3.76602 9.96863 5.70107 9.95165 7.63177 9.95165C7.71894 9.95165 7.8061 9.95165 7.91941 9.95165C7.92377 9.85401 7.93249 9.76486 7.93249 9.67571C7.94121 8.83516 7.94121 7.99036 7.95864 7.14981C7.963 7.00123 8.00222 6.83991 8.07195 6.70406C8.28115 6.28378 8.78234 6.20312 9.14844 6.50878C10.6215 7.75263 12.099 8.99648 13.572 10.2403C14.6093 11.1148 15.6422 11.9894 16.6795 12.8639C16.7274 12.9021 16.7797 12.9403 16.8582 13.004Z" fill="white"/>
</svg>
