<svg width="277" height="45" viewBox="0 0 277 45" fill="none" xmlns="http://www.w3.org/2000/svg">
<g clip-path="url(#clip0)">
<path fill-rule="evenodd" clip-rule="evenodd" d="M36.7964 26.7791C37.2633 25.3988 37.4501 23.9264 37.4501 22.454C37.4501 14.4479 30.9127 8.00613 22.7876 8.00613C14.6625 8.00613 8.12508 14.4479 8.12508 22.454C8.12508 30.4601 14.6625 36.9018 22.7876 36.9018C26.8968 36.9018 30.6325 35.2454 33.3409 32.4847L39.5047 37.8221C35.3955 42.2393 29.4184 45 22.881 45C10.1797 45 0 34.8773 0 22.454C0 10.0307 10.1797 0 22.7876 0C35.3955 0 45.5752 10.0307 45.5752 22.454C45.5752 24.8466 45.2016 27.1472 44.4545 29.3558L36.7964 26.7791Z" fill="#F58220"/>
<path d="M64.6271 18.681H70.6042V30.0921C70.6042 31.1963 70.4174 32.3006 70.0438 33.3129C69.6703 34.3252 69.1099 35.2454 68.3628 35.9816C67.6156 36.7178 66.7751 37.27 65.9346 37.546C64.7205 38.0062 63.3196 38.1902 61.732 38.1902C60.798 38.1902 59.7707 38.0982 58.65 38.0062C57.5293 37.9141 56.5954 37.6381 55.8483 37.27C55.1011 36.9019 54.4474 36.3497 53.7937 35.6135C53.1399 34.8773 52.7664 34.1411 52.4862 33.4049C52.1126 32.2086 51.9258 31.1043 51.9258 30.1841V18.681H57.9029V30.3681C57.9029 31.3804 58.1831 32.2086 58.7434 32.8528C59.3038 33.4049 60.1443 33.773 61.1716 33.773C62.1989 33.773 63.0394 33.497 63.5998 32.9448C64.1601 32.3927 64.4403 31.5644 64.4403 30.4601V18.681H64.6271ZM74.9002 18.681H80.9707V37.9141H74.9002V18.681ZM98.1547 30L103.385 31.5644C103.011 33.0368 102.451 34.2332 101.704 35.2454C100.957 36.2577 100.023 36.9939 98.9019 37.454C97.7812 37.9141 96.3803 38.1902 94.6059 38.1902C92.4579 38.1902 90.7768 37.9141 89.3759 37.27C88.0684 36.6258 86.8543 35.6135 85.9204 34.0491C84.9865 32.4847 84.4262 30.5522 84.4262 28.1595C84.4262 24.9387 85.2667 22.546 87.0411 20.7976C88.7222 19.0491 91.1504 18.2209 94.3257 18.2209C96.7539 18.2209 98.7151 18.681 100.116 19.6933C101.517 20.7055 102.544 22.1779 103.198 24.2025L97.8746 25.3988C97.6878 24.8467 97.501 24.3865 97.3142 24.1105C96.9407 23.6503 96.5671 23.2822 96.1001 23.0982C95.6332 22.8221 95.0728 22.7301 94.4191 22.7301C93.0182 22.7301 91.9909 23.2822 91.2438 24.3865C90.6834 25.2148 90.4032 26.4111 90.4032 28.1595C90.4032 30.2761 90.7768 31.7485 91.4305 32.5767C92.0843 33.4049 93.0182 33.773 94.2323 33.773C95.353 33.773 96.2869 33.497 96.8473 32.8528C97.501 32.2086 97.968 31.1963 98.1547 30ZM106.373 18.681H112.35V25.9509L118.701 18.681H126.733L119.635 25.9509L127.013 37.9141H119.635L115.526 30L112.444 33.2209V37.9141H106.467V18.681H106.373Z" fill="#F58220"/>
<path d="M136.726 37.8221V18.681H143.45C144.944 18.681 146.158 18.773 146.905 18.9571C148.026 19.2332 148.96 19.6933 149.8 20.3375C150.828 21.1657 151.575 22.27 152.135 23.6503C152.602 24.9387 152.882 26.5031 152.882 28.2516C152.882 29.724 152.696 31.0123 152.322 32.1166C151.948 33.2209 151.575 34.1411 151.014 34.8773C150.454 35.6135 149.894 36.1657 149.24 36.6258C148.586 37.0859 147.839 37.362 146.905 37.546C145.971 37.7301 144.944 37.9141 143.823 37.9141H136.726V37.8221ZM139.247 35.6135H143.45C144.757 35.6135 145.785 35.5215 146.438 35.2454C147.185 34.9694 147.746 34.6933 148.213 34.2332C148.866 33.589 149.333 32.8528 149.614 31.8405C149.987 30.8282 150.081 29.6319 150.081 28.1595C150.081 26.135 149.707 24.5706 149.053 23.5583C148.4 22.454 147.559 21.7178 146.625 21.3497C145.971 21.0736 144.851 20.9816 143.263 20.9816H139.154V35.6135H139.247ZM156.431 37.8221V18.681H170.533V20.9816H159.046V26.8712H169.786V29.0798H159.046V35.6135H170.907V37.9141H156.431V37.8221ZM188.371 31.1043L190.986 31.7485C190.426 33.8651 189.492 35.4295 188.091 36.5338C186.69 37.6381 185.009 38.1902 182.954 38.1902C180.9 38.1902 179.125 37.7301 177.818 36.9019C176.51 36.0736 175.483 34.8773 174.829 33.2209C174.176 31.6565 173.802 29.908 173.802 28.0675C173.802 26.043 174.176 24.2945 174.923 22.8221C175.67 21.3497 176.791 20.2454 178.191 19.4172C179.592 18.681 181.18 18.2209 182.954 18.2209C184.916 18.2209 186.503 18.681 187.904 19.6933C189.212 20.7055 190.146 22.0859 190.706 23.8344L188.184 24.3865C187.717 23.0062 187.064 21.9939 186.223 21.3497C185.383 20.7055 184.262 20.4295 182.954 20.4295C181.46 20.4295 180.246 20.7976 179.219 21.5338C178.191 22.27 177.538 23.1902 177.071 24.3865C176.697 25.5828 176.417 26.7792 176.417 28.0675C176.417 29.724 176.697 31.1043 177.164 32.3006C177.631 33.497 178.378 34.4172 179.406 35.0614C180.433 35.7055 181.554 35.9816 182.674 35.9816C184.075 35.9816 185.289 35.6135 186.317 34.7853C187.344 33.9571 188.091 32.7608 188.371 31.1043ZM194.628 37.8221V18.681H197.243V37.9141H194.628V37.8221ZM200.886 31.6565L203.314 31.4724C203.407 32.3927 203.687 33.2209 204.154 33.8651C204.621 34.5092 205.275 34.9694 206.116 35.3375C206.956 35.7055 207.983 35.8896 209.104 35.8896C210.131 35.8896 210.972 35.7055 211.719 35.4295C212.466 35.1534 213.027 34.7853 213.4 34.2332C213.774 33.773 213.961 33.2209 213.961 32.5767C213.961 31.9325 213.774 31.4724 213.4 31.0123C213.027 30.5522 212.466 30.1841 211.626 29.908C211.065 29.724 209.945 29.3559 208.17 28.9878C206.396 28.5276 205.088 28.1595 204.435 27.7914C203.501 27.3313 202.847 26.6871 202.38 26.043C201.913 25.3068 201.726 24.5706 201.726 23.6503C201.726 22.7301 202.006 21.8098 202.567 20.9816C203.127 20.1534 203.968 19.5092 204.995 19.0491C206.116 18.589 207.236 18.4049 208.544 18.4049C209.945 18.4049 211.252 18.589 212.373 19.0491C213.494 19.5092 214.334 20.1534 214.894 21.0736C215.455 21.9939 215.828 23.0062 215.828 24.1105L213.4 24.2945C213.307 23.0982 212.84 22.1779 212.093 21.5338C211.346 20.8896 210.225 20.6135 208.731 20.6135C207.143 20.6135 206.022 20.8896 205.275 21.4417C204.528 21.9939 204.248 22.7301 204.248 23.4663C204.248 24.2025 204.528 24.7546 204.995 25.2148C205.462 25.6749 206.769 26.135 208.917 26.5951C210.972 27.0552 212.466 27.5154 213.213 27.7914C214.334 28.3436 215.175 28.9878 215.735 29.724C216.295 30.5522 216.575 31.4724 216.575 32.4847C216.575 33.497 216.295 34.5092 215.642 35.3375C215.081 36.2577 214.241 36.9019 213.12 37.454C211.999 37.9141 210.785 38.1902 209.384 38.1902C207.61 38.1902 206.116 37.9141 204.995 37.454C203.781 36.9939 202.847 36.1657 202.193 35.1534C201.259 34.1411 200.886 32.9448 200.886 31.6565ZM220.311 37.8221V18.681H222.926V37.9141H220.311V37.8221ZM226.662 28.5276C226.662 25.3068 227.502 22.8221 229.277 21.0736C231.051 19.2332 233.293 18.4049 236.001 18.4049C237.775 18.4049 239.456 18.8651 240.857 19.6933C242.258 20.5215 243.379 21.7178 244.126 23.2822C244.873 24.7546 245.247 26.5031 245.247 28.4356C245.247 30.3681 244.873 32.1166 244.033 33.681C243.192 35.2454 242.071 36.3497 240.671 37.1779C239.176 38.0062 237.589 38.3743 235.908 38.3743C234.04 38.3743 232.452 37.9141 230.958 37.0859C229.557 36.2577 228.436 35.0614 227.689 33.497C227.035 31.8405 226.662 30.1841 226.662 28.5276ZM229.277 28.5276C229.277 30.8282 229.931 32.6687 231.145 33.9571C232.452 35.2454 233.946 35.9816 235.908 35.9816C237.869 35.9816 239.456 35.3375 240.671 33.9571C241.885 32.5767 242.538 30.7362 242.538 28.2516C242.538 26.6871 242.258 25.3068 241.698 24.2025C241.138 23.0062 240.39 22.1779 239.363 21.5338C238.336 20.8896 237.215 20.6135 235.908 20.6135C234.04 20.6135 232.545 21.2577 231.238 22.454C229.931 23.6503 229.277 25.6749 229.277 28.5276ZM248.515 37.8221V18.681H251.13L261.404 33.773V18.681H263.832V37.9141H261.217L250.944 22.8221V37.9141H248.515V37.8221Z" fill="#0095DA"/>
<path fill-rule="evenodd" clip-rule="evenodd" d="M22.6942 22.0859L22.2273 22.8221L29.325 28.8957C27.644 30.4601 25.4026 31.4724 22.881 31.4724C17.7444 31.4724 13.6352 27.4233 13.6352 22.362C13.6352 17.3006 17.7444 13.2515 22.881 13.2515C28.0175 13.2515 32.1268 17.3006 32.1268 22.362C32.1268 23.2822 32.0334 24.1104 31.7532 24.9386L22.6942 22.0859Z" fill="#F58220"/>
<path d="M272.05 19.1411C274.474 19.1411 276.44 17.2047 276.44 14.8159C276.44 12.4272 274.474 10.4908 272.05 10.4908C269.626 10.4908 267.661 12.4272 267.661 14.8159C267.661 17.2047 269.626 19.1411 272.05 19.1411Z" stroke="#00AEEF" stroke-width="1.1965" stroke-miterlimit="2.6131"/>
<path d="M270.369 17.0245V12.6074H272.33C272.704 12.6074 273.078 12.6074 273.264 12.6994C273.451 12.7914 273.638 12.8834 273.731 13.1595C273.825 13.3436 273.918 13.6196 273.918 13.8037C273.918 14.0798 273.825 14.3558 273.638 14.6319C273.451 14.816 273.078 15 272.704 15C272.891 15.092 272.984 15.184 273.078 15.184C273.264 15.3681 273.451 15.5521 273.545 15.7362L274.292 16.9325H273.545L272.984 16.0123C272.797 15.7362 272.704 15.5521 272.517 15.3681C272.424 15.1841 272.33 15.092 272.237 15.092C272.144 15 272.05 15 271.957 15C271.863 15 271.77 15 271.583 15H270.93V16.9325H270.369V17.0245ZM270.93 14.5399H272.237C272.517 14.5399 272.704 14.5399 272.891 14.4479C273.078 14.3558 273.171 14.2638 273.264 14.1718C273.358 14.0798 273.358 13.8957 273.358 13.8037C273.358 13.6196 273.264 13.4356 273.171 13.2515C272.984 13.1595 272.797 13.0675 272.424 13.0675H271.023V14.5399H270.93Z" fill="#00AEEF"/>
</g>
<defs>
<clipPath id="clip0">
<rect width="277" height="45" fill="white"/>
</clipPath>
</defs>
</svg>
