<svg width="26" height="26" viewBox="0 0 26 26" fill="none" xmlns="http://www.w3.org/2000/svg">
<path fill-rule="evenodd" clip-rule="evenodd" d="M20.9489 15.4724C21.2147 14.6748 21.3211 13.8241 21.3211 12.9734C21.3211 8.34765 17.5992 4.62577 12.9734 4.62577C8.34765 4.62577 4.62577 8.34765 4.62577 12.9734C4.62577 17.5992 8.34765 21.3211 12.9734 21.3211C15.3129 21.3211 17.4397 20.364 18.9816 18.7689L22.4908 21.8528C20.1513 24.4049 16.7485 26 13.0266 26C5.7955 26 0 20.1513 0 12.9734C0 5.7955 5.7955 0 12.9734 0C20.1513 0 25.9468 5.7955 25.9468 12.9734C25.9468 14.3558 25.7341 15.6851 25.3088 16.9611L20.9489 15.4724Z" fill="#F58220"/>
<path fill-rule="evenodd" clip-rule="evenodd" d="M12.9202 12.7607L12.6544 13.1861L16.6953 16.6953C15.7382 17.5992 14.4621 18.184 13.0266 18.184C10.1022 18.184 7.76276 15.8446 7.76276 12.9202C7.76276 9.9959 10.1022 7.65643 13.0266 7.65643C15.9509 7.65643 18.2904 9.9959 18.2904 12.9202C18.2904 13.4519 18.2372 13.9305 18.0777 14.409L12.9202 12.7607Z" fill="#F58220"/>
</svg>
