<svg width="37" height="17" viewBox="0 0 37 17" fill="none" xmlns="http://www.w3.org/2000/svg">
<path d="M22.0639 16.6905C18.475 16.6905 14.8861 16.6905 11.3055 16.6905C10.8298 16.6905 10.763 16.6234 10.8715 16.2464C11.172 15.132 11.5142 14.0177 11.7729 12.8865C11.9148 12.2665 12.3822 11.9816 12.8079 11.6549C14.8026 10.088 16.8224 8.55472 18.8172 6.9879C19.1093 6.76167 19.293 6.77005 19.5684 7.00465C20.6284 7.90956 21.7134 8.77257 22.765 9.67747C23.0989 9.96235 23.3743 9.99586 23.7666 9.7864C25.1855 9.00717 26.621 8.26984 28.0482 7.499C28.3571 7.33142 28.5657 7.31467 28.8745 7.56603C30.6189 9.00717 32.3883 10.4232 34.1577 11.8476C34.4081 12.0487 34.4415 12.233 34.333 12.5598C34.1327 13.1714 34.0409 13.8249 33.899 14.4534C33.7655 15.0901 33.6319 15.7353 33.49 16.3721C33.4316 16.6318 33.248 16.6989 32.9893 16.6989C31.5287 16.6905 30.068 16.6989 28.6074 16.6989C26.4291 16.6905 24.2423 16.6905 22.0639 16.6905Z" fill="white"/>
<path d="M15.4706 0C22.5483 0 29.4758 0 36.5117 0C36.3865 0.142439 36.3364 0.242984 36.253 0.293256C33.457 1.8517 30.6526 3.40177 27.8482 4.96022C26.5212 5.69755 25.1941 6.44326 23.8503 7.15545C23.7418 7.21411 23.4831 7.11356 23.3579 7.01301C22.5734 6.35109 21.7971 5.67241 21.0209 4.99374C19.3016 3.47718 17.5906 1.96063 15.8713 0.435695C15.7628 0.33515 15.6626 0.209469 15.4706 0Z" fill="white"/>
<path d="M34.9424 10.2389C34.4249 9.84506 34.0076 9.52666 33.5903 9.19151C32.5637 8.36202 31.5454 7.53252 30.5272 6.70302C30.1266 6.37625 30.1266 6.38463 30.5606 6.09137C32.522 4.79266 34.4917 3.48558 36.4531 2.18687C36.5866 2.0947 36.7368 2.03605 36.9538 1.98578C36.3696 4.71725 35.6435 7.41522 34.9424 10.2389Z" fill="white"/>
<path d="M12.8415 9.19988C13.4925 6.69463 14.1352 4.18939 14.8196 1.55008C16.0966 2.73986 17.265 3.8291 18.517 4.99375C16.6474 6.43489 14.8112 7.85928 12.9667 9.27529C12.925 9.25015 12.8832 9.22502 12.8415 9.19988Z" fill="white"/>
<path d="M6.19774 10.0629C4.40329 10.0629 2.60883 10.0629 0.822718 10.0629C0.463826 10.0629 0.380363 9.91207 0.555636 9.5853C0.563982 9.57692 0.580675 9.56854 0.580675 9.55178C0.789332 8.92337 1.20665 8.78093 1.85766 8.78931C5.07934 8.83121 8.30936 8.80607 11.531 8.80607C11.6813 8.80607 11.8398 8.81445 11.9901 8.81445C12.2655 8.80607 12.3323 8.91499 12.2321 9.17474C11.8899 10.0713 11.8983 10.0713 10.9218 10.0713C9.35265 10.0713 7.78354 10.0713 6.20609 10.0713C6.19774 10.0713 6.19774 10.0713 6.19774 10.0629Z" fill="white"/>
<path d="M0.00471821 16.2548C-0.053706 15.6264 0.438727 15.0315 1.02297 15.0399C4.0193 15.0399 7.02397 15.0483 10.0203 15.0483C10.1538 15.0483 10.2957 15.0566 10.5127 15.0734C10.4042 15.4672 10.3375 15.8191 10.2123 16.1543C10.1789 16.2464 9.98691 16.3218 9.87006 16.3218C6.62334 16.3218 3.36828 16.3051 0.121567 16.2967C0.079835 16.2967 0.0381035 16.2716 0.00471821 16.2548Z" fill="white"/>
<path d="M7.41627 12.9871C6.33125 12.9871 5.24623 12.9871 4.16121 12.9871C3.75224 12.9871 3.66043 12.8446 3.80231 12.476C3.86074 12.3335 3.90247 12.1911 3.96089 12.057C4.0694 11.7973 4.21963 11.6297 4.54514 11.6381C6.36463 11.6632 8.18413 11.68 10.0036 11.6884C10.3375 11.6884 10.6713 11.6381 10.9968 11.6548C11.2472 11.6716 11.4976 11.747 11.2806 12.0905C11.2639 12.1157 11.2472 12.1408 11.2389 12.1659C10.9718 12.9954 10.9718 12.9954 10.1205 12.9954C9.21907 12.9871 8.31767 12.9871 7.41627 12.9871Z" fill="white"/>
</svg>
