<svg width="37" height="35" viewBox="0 0 37 35" fill="none" xmlns="http://www.w3.org/2000/svg">
<path d="M8.124 35C5.38794 32.4089 2.69397 29.8178 0 27.2679C0.12628 27.1445 0.168373 27.0622 0.25256 26.98C2.10466 25.2115 3.87258 23.443 5.72469 21.6745C8.37656 19.1657 11.5336 18.4254 15.0694 19.5769C15.9534 19.8648 16.8373 20.0293 17.7634 19.9882C19.9101 19.9471 22.0569 19.9882 24.1615 19.9882C25.3822 19.9882 26.4346 20.8519 26.603 22.0035C26.7713 23.1962 26.0136 24.3478 24.835 24.6768C24.5404 24.7591 24.2457 24.8002 23.9511 24.8002C22.3936 24.8002 20.8783 24.8002 19.3208 24.8002C18.8157 24.8002 18.4369 25.1292 18.3527 25.5816C18.2685 25.9929 18.4789 26.4042 18.8999 26.6098C19.0683 26.6921 19.2366 26.6921 19.405 26.6921C21.0045 26.6921 22.6041 26.6921 24.2036 26.6921C26.4346 26.651 28.3288 24.9647 28.5813 22.7849C28.6234 22.5793 28.7076 22.3325 28.8339 22.168C30.0125 20.8519 31.2332 19.5358 32.4539 18.2197C33.7588 16.8214 35.9477 17.0681 36.7474 18.7132C37.2526 19.7415 37.0421 20.6874 36.3265 21.51C34.727 23.3607 33.1274 25.0881 31.57 26.8566C30.4334 28.1316 29.2969 29.3654 28.2025 30.6404C26.9397 32.0387 25.3402 32.779 23.446 32.779C19.2366 32.779 15.0273 32.779 10.818 32.779C10.5233 32.779 10.3129 32.8613 10.1024 33.0669C9.42889 33.6839 8.79749 34.3419 8.124 35Z" fill="white"/>
<path d="M23.8248 10.5699C23.8248 10.3643 23.8669 10.2409 23.8669 10.0764C23.909 8.06112 23.9932 6.04584 24.0353 4.03057C24.0353 3.86605 24.0353 3.70154 24.0774 3.53703C24.1616 3.00236 24.5825 2.67334 25.1297 2.67334C25.8453 2.67334 26.5609 2.67334 27.3186 2.67334C27.9921 2.67334 28.4551 3.08462 28.4551 3.74267C28.4972 5.26441 28.5814 6.82728 28.5814 8.34902C28.5814 9.08932 28.5814 9.82963 28.5814 10.6111C29.2128 10.6111 29.76 10.6111 30.2651 10.6111C31.0649 10.6111 31.6121 11.2691 31.4437 12.0505C31.4016 12.2151 31.3175 12.3796 31.1912 12.5441C29.9705 14.1481 28.7498 15.7109 27.487 17.3149C26.8135 18.1786 25.6349 18.1786 24.9614 17.3149C23.6986 15.7521 22.4779 14.1481 21.2572 12.5441C20.9625 12.1328 20.8362 11.7215 21.0888 11.2691C21.3413 10.8167 21.7202 10.6111 22.2674 10.6111C22.7725 10.5699 23.2776 10.5699 23.8248 10.5699Z" fill="white"/>
<path d="M16.1638 15.2585C15.8271 15.2585 15.4482 15.2585 15.1115 15.2585C14.4801 15.2585 14.0171 14.8472 13.975 14.1892C13.8908 12.0505 13.8487 9.953 13.7645 7.81434C13.7645 7.3208 13.7645 7.3208 13.2594 7.3208C12.8805 7.3208 12.5017 7.3208 12.165 7.3208C11.6598 7.3208 11.3231 7.11516 11.1126 6.70388C10.9022 6.25147 10.9442 5.84019 11.2389 5.47004C12.3333 4.03056 13.4698 2.59107 14.5643 1.15159C14.7326 0.945951 14.8589 0.781438 15.0273 0.575798C15.6587 -0.164508 16.7952 -0.164508 17.3845 0.575798C18.6894 2.17979 19.9522 3.82492 21.215 5.47004C21.5097 5.84019 21.5518 6.25147 21.3413 6.70388C21.1308 7.15629 20.752 7.36193 20.2469 7.36193C19.8259 7.36193 19.405 7.36193 18.9841 7.36193C18.7315 7.36193 18.6052 7.40306 18.6052 7.69096C18.5631 9.6651 18.521 11.6393 18.4369 13.6134C18.4369 13.819 18.4369 14.0658 18.3948 14.2715C18.3106 14.9295 17.8896 15.2997 17.2161 15.2997C16.8373 15.2585 16.5006 15.2585 16.1638 15.2585Z" fill="white"/>
</svg>
