<svg width="20" height="19" viewBox="0 0 20 19" fill="none" xmlns="http://www.w3.org/2000/svg">
<path d="M2.03833 0C6.30949 0 10.5823 0 14.8534 0C14.8647 0.00321503 14.8759 0.00964508 14.8872 0.00964508C15.064 0.0208977 15.228 0.0755532 15.3855 0.154321C15.6475 0.286138 15.8774 0.464572 16.0993 0.652651C16.5526 1.03524 16.9753 1.45159 17.3917 1.87275C17.792 2.27785 18.1874 2.68937 18.5395 3.13948C18.8272 3.5092 19.0024 3.90626 19.0024 4.39173C18.9944 8.51822 18.9992 12.6463 18.996 16.7728C18.996 16.9207 18.9847 17.0702 18.9558 17.2149C18.7517 18.2598 17.8579 18.996 16.7953 18.996C11.931 18.9976 7.06663 18.996 2.20229 18.996C1.9676 18.996 1.73772 18.9655 1.51589 18.8883C0.749102 18.6166 0.25881 18.0894 0.059478 17.2985C0.0321503 17.1891 0.0192902 17.0734 0 16.9625C0 11.9872 0 7.01198 0 2.03672C0.00321503 2.02065 0.00803757 2.00618 0.0112526 1.9901C0.0353653 1.85829 0.0466179 1.72004 0.0868058 1.59144C0.33597 0.787682 0.871273 0.2781 1.68307 0.0610855C1.79881 0.0305428 1.91937 0.0192902 2.03833 0ZM9.49398 18.2662C11.6754 18.2662 13.8584 18.2662 16.0398 18.2662C16.0832 18.2662 16.1282 18.2678 16.1716 18.2598C16.5574 18.1955 16.8066 17.8997 16.8066 17.509C16.8066 15.6749 16.8066 13.8407 16.8066 12.0065C16.8066 11.4182 16.8066 10.8298 16.8066 10.2399C16.8066 9.82673 16.4851 9.50202 16.0703 9.50041C15.5463 9.4988 15.0222 9.50041 14.4966 9.50041C10.6466 9.50041 6.79818 9.50041 2.94818 9.50041C2.51576 9.50041 2.19265 9.81387 2.19265 10.2366C2.19265 12.6672 2.19265 15.0994 2.19265 17.5299C2.19265 17.5894 2.19908 17.6505 2.21194 17.7084C2.29392 18.046 2.58328 18.2662 2.94014 18.2662C5.12636 18.2662 7.31097 18.2662 9.49398 18.2662ZM9.13068 0.731419C7.56978 0.731419 6.00889 0.731419 4.44638 0.731419C4.41423 0.731419 4.38208 0.731419 4.34993 0.733026C3.96091 0.749102 3.65227 1.07221 3.65227 1.46123C3.65227 3.1668 3.65227 4.87238 3.65227 6.57956C3.65227 6.97661 3.9786 7.30454 4.37565 7.30776C4.58302 7.30937 4.78878 7.30776 4.99615 7.30776C7.96362 7.30776 10.9311 7.30776 13.9002 7.30776C14.2378 7.30776 14.5464 7.04091 14.5994 6.70816C14.6075 6.65672 14.6107 6.60367 14.6107 6.55223C14.6107 4.86595 14.6107 3.18127 14.6123 1.49499C14.6123 1.35513 14.5866 1.22332 14.5142 1.10275C14.3631 0.85359 14.1413 0.733026 13.8487 0.733026C12.2782 0.731419 10.7044 0.731419 9.13068 0.731419Z" fill="white"/>
<path d="M13.1495 1.46606C13.1495 3.17003 13.1495 4.86917 13.1495 6.57314C12.4213 6.57314 11.6947 6.57314 10.9648 6.57314C10.9648 4.87239 10.9648 3.17164 10.9648 1.46606C11.6898 1.46606 12.418 1.46606 13.1495 1.46606Z" fill="white"/>
</svg>
