<svg width="40" height="43" viewBox="0 0 40 43" fill="none" xmlns="http://www.w3.org/2000/svg">
<path d="M29.9898 27.4893C32.8203 30.1486 35.7038 32.8343 38.5343 35.5463C39.7247 36.6785 40.2538 38.0477 39.8835 39.6538C39.5396 41.26 38.5608 42.3658 36.9471 42.8134C35.3334 43.2874 33.9314 42.8398 32.7674 41.6812C29.9634 38.8903 27.1593 36.0729 24.4345 33.2293C23.8526 32.6237 23.4028 32.492 22.5828 32.808C12.3981 36.7312 1.20825 29.78 0.0971982 18.9057C-0.802225 10.1377 4.62077 2.39666 13.033 0.421903C22.3712 -1.7635 31.9738 4.79271 33.2701 14.2716C33.7727 17.7998 33.4552 22.2496 29.9898 27.4893ZM16.7101 28.2529C22.8738 28.2792 27.8735 23.2765 27.9 17.0362C27.9264 10.7697 22.9531 5.68793 16.763 5.6616C10.6257 5.63527 5.62601 10.6643 5.5731 16.8782C5.49374 23.1448 10.5199 28.2265 16.7101 28.2529Z" fill="white"/>
</svg>
