<svg width="18" height="21" viewBox="0 0 18 21" fill="none" xmlns="http://www.w3.org/2000/svg">
<path d="M0.577177 10.4765C0.577177 7.53187 0.596053 4.59664 0.567739 1.65198C0.558301 0.783682 1.14346 -0.0185494 2.23827 0.000326605C5.26787 0.0475167 8.30691 0.00976463 11.3365 0.0286407C11.6008 0.0286407 11.9217 0.170211 12.1104 0.349533C13.6205 1.82186 15.1023 3.31307 16.6029 4.79484C16.9049 5.08742 17.0371 5.39887 17.0276 5.83302C17.0088 10.3255 16.9993 14.8275 17.0276 19.32C17.0371 20.1977 16.4802 21.0094 15.3382 20.9999C10.9401 20.9622 6.53257 20.981 2.13445 20.981C1.1529 20.981 0.586615 20.4148 0.577177 19.4332C0.577177 16.4508 0.577177 13.4589 0.577177 10.4765ZM1.91738 10.486C1.91738 12.987 1.91738 15.4881 1.91738 17.9892C1.91738 18.9519 2.57804 19.6503 3.52184 19.6503C7.04222 19.6597 10.5626 19.6597 14.0924 19.6503C14.9985 19.6503 15.678 18.9613 15.678 18.0647C15.6874 14.4122 15.678 10.7691 15.6874 7.11659C15.6874 6.73907 15.5553 6.62582 15.1967 6.62582C14.1774 6.64469 13.1486 6.57863 12.1293 6.64469C11.11 6.71076 10.3644 6.06897 10.3927 4.91753C10.421 3.92654 10.3738 2.93555 10.4116 1.94456C10.4305 1.45378 10.2511 1.33109 9.77925 1.33109C7.73119 1.34996 5.69258 1.34053 3.64453 1.34053C2.55916 1.34053 1.91738 1.99175 1.91738 3.06768C1.91738 5.54988 1.91738 8.0132 1.91738 10.486Z" fill="#255C85"/>
<path d="M8.84487 13.6099C10.2889 13.6099 11.7329 13.6099 13.1769 13.6099C13.696 13.6099 13.9697 13.8364 13.9886 14.2517C14.0075 14.6859 13.7149 14.9407 13.1769 14.9407C10.2511 14.9407 7.33479 14.9407 4.40901 14.9407C3.88991 14.9407 3.61621 14.7142 3.59734 14.2989C3.5879 13.8648 3.87104 13.6099 4.40901 13.6099C5.90021 13.6099 7.37254 13.6099 8.84487 13.6099Z" fill="#255C85"/>
<path d="M8.75053 17.9609C7.40089 17.9609 6.05126 17.9609 4.70162 17.9609C4.57893 17.9609 4.4468 17.9703 4.3241 17.9609C3.88051 17.9326 3.61625 17.6872 3.60681 17.3096C3.60681 16.9321 3.88051 16.6679 4.30522 16.6395C4.42792 16.6301 4.56005 16.6395 4.68275 16.6395C7.42921 16.6395 10.1757 16.6395 12.9221 16.6395C13.0165 16.6395 13.1109 16.6395 13.2053 16.6395C13.6961 16.6584 13.9981 16.9132 13.9886 17.3191C13.9792 17.7155 13.7055 17.9609 13.2242 17.9703C12.2237 17.9797 11.2139 17.9703 10.2134 17.9703C9.72265 17.9609 9.23187 17.9609 8.75053 17.9609Z" fill="#255C85"/>
<path d="M8.78825 11.9206C7.36311 11.9206 5.92853 11.9206 4.50339 11.9206C4.33351 11.9206 4.10699 11.9395 4.01261 11.8451C3.84273 11.6752 3.64453 11.4298 3.64453 11.2127C3.64453 11.024 3.87104 10.7975 4.0598 10.6748C4.19194 10.5804 4.41845 10.5993 4.60721 10.5993C7.40086 10.5993 10.1945 10.5993 12.9882 10.5993C13.1014 10.5993 13.2052 10.5898 13.3185 10.6087C13.7621 10.6559 14.0169 10.9201 13.998 11.2977C13.9792 11.6658 13.7055 11.93 13.2619 11.93C11.7707 11.93 10.2795 11.9206 8.78825 11.9206Z" fill="#255C85"/>
<path d="M6.16449 7.56965C6.75909 7.56965 7.36312 7.56022 7.95772 7.56965C8.41074 7.57909 8.71276 7.86223 8.70332 8.23976C8.70332 8.61728 8.43906 8.88154 7.97659 8.89098C6.76853 8.90985 5.56046 8.90985 4.34295 8.89098C3.85218 8.88154 3.58791 8.61728 3.59735 8.22088C3.60679 7.82448 3.88993 7.57909 4.36183 7.56965C4.96586 7.56022 5.56046 7.56965 6.16449 7.56965Z" fill="#255C85"/>
</svg>
