<svg width="28" height="29" viewBox="0 0 28 29" fill="none" xmlns="http://www.w3.org/2000/svg">
<path d="M7.02036 18.4922C13.0697 18.4922 19.0413 18.4922 25.0258 18.4922C25.0258 19.4321 25.0258 20.3326 25.0258 21.2791C24.9091 21.2857 24.7924 21.2989 24.6822 21.2989C18.8662 21.2989 13.0568 21.2989 7.2408 21.2989C5.73657 21.2989 4.61487 20.451 4.35552 19.0838C4.19342 18.2227 4.35552 17.4274 4.92609 16.7175C5.58744 15.8959 6.19691 15.0283 6.81287 14.1672C6.8842 14.0686 6.87123 13.8583 6.82584 13.7202C5.89866 10.9004 4.96499 8.08062 4.03133 5.26082C3.83033 4.64953 3.60988 4.04482 3.42834 3.42696C3.35053 3.1509 3.23382 3.04573 2.93557 3.05887C2.13806 3.07859 1.33407 3.06545 0.536568 3.06545C0.41986 3.06545 0.303152 3.06545 0.166992 3.06545C0.166992 2.12551 0.166992 1.22502 0.166992 0.285081C0.270733 0.278508 0.374473 0.265362 0.478214 0.265362C1.97597 0.265362 3.47372 0.271935 4.97796 0.258789C5.21786 0.258789 5.30864 0.337665 5.37996 0.561146C6.68968 4.56408 8.01237 8.56702 9.3221 12.57C9.39991 12.8066 9.49716 12.8855 9.75003 12.8855C13.4977 12.8789 17.2453 12.8789 20.9994 12.8855C21.2458 12.8855 21.356 12.8066 21.4533 12.5831C22.7824 9.5201 24.1181 6.46367 25.4473 3.3941C25.5575 3.13775 25.6872 3.00629 25.9725 3.0523C26.2902 3.09831 26.6273 3.07859 26.9256 3.17719C27.5804 3.40067 27.9565 4.13027 27.7296 4.79414C27.5091 5.44486 27.2174 6.06929 26.945 6.7003C25.7455 9.46095 24.546 12.2216 23.3465 14.9888C23.165 15.4029 22.8149 15.5804 22.4064 15.6527C22.2184 15.6855 22.0174 15.679 21.8228 15.679C17.7186 15.679 13.6144 15.6855 9.50365 15.6724C9.21836 15.6724 9.05626 15.7644 8.89417 15.9879C8.29766 16.8095 7.6817 17.6114 7.02036 18.4922Z" fill="white"/>
<path d="M19.5079 5.85905C18.0944 7.77179 16.7328 9.60565 15.3517 11.4789C13.9772 9.61879 12.6091 7.77836 11.2151 5.88535C12.1552 5.88535 13.0435 5.88535 13.9577 5.88535C13.9577 4.00548 13.9577 2.16504 13.9577 0.291748C14.8914 0.291748 15.7862 0.291748 16.7263 0.291748C16.7263 2.13218 16.7263 3.97918 16.7263 5.85905C17.647 5.85905 18.5353 5.85905 19.5079 5.85905Z" fill="white"/>
<path d="M7.05921 28.2926C5.53552 28.2991 4.3036 27.0437 4.29712 25.4991C4.29712 23.961 5.53552 22.699 7.05273 22.6924C8.55697 22.6858 9.81483 23.961 9.82131 25.4925C9.82131 27.0306 8.57642 28.2926 7.05921 28.2926Z" fill="white"/>
<path d="M22.2703 28.2926C20.7531 28.2926 19.5082 27.0306 19.5017 25.4991C19.5017 23.9741 20.7596 22.699 22.2638 22.699C23.768 22.699 25.0324 23.9741 25.0259 25.4991C25.0324 27.0306 23.781 28.2926 22.2703 28.2926Z" fill="white"/>
</svg>
