<svg width="19" height="18" viewBox="0 0 19 18" fill="none" xmlns="http://www.w3.org/2000/svg">
<path d="M5.49447 14.3834C5.57495 14.2807 5.64537 14.1883 5.71579 14.0959C8.9551 9.64038 12.1944 5.17458 15.4337 0.719045C15.9367 0.0312095 16.6711 -0.184381 17.3552 0.16467C18.1801 0.585585 18.4216 1.63274 17.8683 2.4027C17.0132 3.60385 16.1379 4.78446 15.2728 5.97534C12.5566 9.71224 9.83032 13.4594 7.11413 17.1963C6.81233 17.6172 6.44011 17.9047 5.92705 17.9765C5.41399 18.0587 4.95123 17.9252 4.56895 17.5762C3.19073 16.3237 1.82257 15.0712 0.464472 13.8085C-0.119008 13.2643 -0.149188 12.3404 0.353812 11.7449C0.876932 11.129 1.76221 11.016 2.38593 11.5499C3.15049 12.2069 3.88487 12.9153 4.63937 13.6031C4.92105 13.8598 5.20273 14.1164 5.49447 14.3834Z" fill="white"/>
</svg>
