<svg width="19" height="18" viewBox="0 0 19 18" fill="none" xmlns="http://www.w3.org/2000/svg">
<path d="M6.32772 14.3834C6.4082 14.2807 6.47862 14.1883 6.54904 14.0959C9.78836 9.64038 13.0277 5.17458 16.267 0.719045C16.77 0.0312095 17.5044 -0.184381 18.1884 0.16467C19.0134 0.585585 19.2548 1.63274 18.7015 2.4027C17.8464 3.60385 16.9712 4.78446 16.106 5.97534C13.3898 9.71224 10.6636 13.4594 7.94738 17.1963C7.64558 17.6172 7.27336 17.9047 6.7603 17.9765C6.24724 18.0587 5.78448 17.9252 5.4022 17.5762C4.02398 16.3237 2.65582 15.0712 1.29772 13.8085C0.714244 13.2643 0.684064 12.3404 1.18706 11.7449C1.71018 11.129 2.59546 11.016 3.21918 11.5499C3.98374 12.2069 4.71812 12.9153 5.47262 13.6031C5.7543 13.8598 6.03598 14.1164 6.32772 14.3834Z" fill="#255C85"/>
</svg>
