<svg width="16" height="17" viewBox="0 0 16 17" fill="none" xmlns="http://www.w3.org/2000/svg">
<path d="M10.6726 6.50449C11.1181 6.50449 11.5358 6.50449 11.951 6.50449C12.6294 6.50702 13.3104 6.50449 13.9889 6.51209C14.48 6.51715 14.9407 6.64373 15.3432 6.93485C16.1988 7.55253 16.2216 8.78537 15.3913 9.43597C15.366 9.45622 15.3407 9.47647 15.3052 9.50432C15.7128 9.83848 15.928 10.2562 15.8672 10.7827C15.809 11.2916 15.5913 11.7067 15.1154 11.9497C15.6217 12.8003 15.4647 13.5522 14.7053 14.0357C14.7635 14.2433 14.8445 14.4407 14.8673 14.6433C14.9432 15.342 14.5103 15.8736 13.8142 15.9596C13.6598 15.9799 13.5028 15.99 13.3484 15.99C10.7966 15.9925 8.24235 15.9875 5.6906 15.9951C5.2248 15.9976 4.89318 15.7698 4.58686 15.466C4.56155 15.4407 4.55649 15.3901 4.55649 15.3495C4.55396 12.8434 4.55142 10.3372 4.55902 7.831C4.55902 7.57025 4.7261 7.3652 4.9109 7.19559C5.31087 6.83106 5.71591 6.47412 6.12095 6.11717C6.82218 5.50202 7.50821 4.87421 8.15628 4.20083C9.04737 3.2743 9.59164 2.16044 9.97643 0.955449C10.0043 0.866846 10.0321 0.778244 10.0625 0.692173C10.2701 0.07955 10.7612 -0.0647454 11.2776 0.0238571C11.7004 0.094739 12.0193 0.337763 12.2345 0.70483C12.5611 1.25923 12.6168 1.85666 12.5206 2.47941C12.394 3.30468 12.0548 4.05147 11.6599 4.77801C11.3713 5.30709 11.0624 5.82352 10.7612 6.34754C10.7384 6.38804 10.7156 6.43108 10.6726 6.50449Z" fill="#4CBCC0"/>
<path d="M0 11.7043C0 10.4588 0 9.21586 0 7.97036C0 7.58558 0.199988 7.38306 0.582245 7.38306C1.52649 7.38306 2.47074 7.38306 3.41752 7.38306C3.79978 7.38306 4.0023 7.58558 4.0023 7.96783C4.0023 10.4563 4.0023 12.9448 4.0023 15.4332C4.0023 15.8079 3.79978 16.0104 3.42512 16.0104C2.47581 16.0104 1.52649 16.0104 0.577182 16.0104C0.197457 16.0104 0 15.8129 0 15.4358C0 14.1928 0 12.9498 0 11.7043Z" fill="#4CBCC0"/>
</svg>
