<svg width="55" height="55" viewBox="0 0 55 55" fill="none" xmlns="http://www.w3.org/2000/svg">
<path fill-rule="evenodd" clip-rule="evenodd" d="M4.54788 45.9225V52.4761H3.10273V45.9225H1.48755V44.6541H6.12056V45.9225H4.54788ZM11.1361 52.4761L10.201 50.0661C10.116 49.8124 9.98848 49.6433 9.81846 49.5164C9.64844 49.3896 9.43592 49.305 9.18089 49.305H8.62833V52.4761H7.18317V44.9501C7.48071 44.8232 7.82074 44.6964 8.24579 44.6541C8.62833 44.5695 9.05338 44.5273 9.47842 44.5273C10.4135 44.5273 11.1361 44.7387 11.6037 45.1615C12.0712 45.5843 12.3262 46.134 12.3262 46.895C12.3262 47.191 12.2837 47.4447 12.1987 47.6561C12.1137 47.8675 12.0287 48.0789 11.8587 48.2057C11.7312 48.3748 11.5612 48.5017 11.3911 48.5863C11.2211 48.6708 11.0086 48.7554 10.8386 48.8399C11.0511 48.9668 11.2211 49.0936 11.3486 49.305C11.4761 49.5164 11.6037 49.7278 11.7312 49.9815L12.7513 52.4761H11.1361ZM10.8386 46.9796C10.8386 46.5568 10.7111 46.2608 10.4985 46.0071C10.286 45.7957 9.94598 45.6689 9.47842 45.6689C9.30841 45.6689 9.18089 45.6689 9.01087 45.7111C8.84085 45.7534 8.71334 45.7534 8.62833 45.7957V48.2057H9.39341C9.86097 48.2057 10.201 48.1212 10.456 47.9098C10.7111 47.7406 10.8386 47.4024 10.8386 46.9796ZM13.6014 52.4761V44.6541H15.089V52.4761H13.6014ZM13.8139 44.2736L14.4515 42.836C14.579 42.6246 14.834 42.4978 15.174 42.4978C15.5141 42.4978 15.7266 42.6246 15.7691 42.836L14.494 44.2736H13.8139ZM21.2522 45.9225V52.4761H19.8071V45.9225H18.1919V44.6541H22.8249V45.9225H21.2522ZM28.9881 50.1929C28.9881 50.5735 28.9031 50.9117 28.7755 51.2077C28.648 51.5036 28.478 51.7573 28.223 51.9687C28.0105 52.1801 27.7129 52.3493 27.4154 52.4338C27.1179 52.5607 26.7778 52.603 26.3953 52.603C26.0127 52.603 25.6727 52.5607 25.3752 52.4338C25.0776 52.307 24.7801 52.1801 24.5676 51.9687C24.3551 51.7573 24.1425 51.5036 24.015 51.2077C23.8875 50.9117 23.8025 50.5735 23.8025 50.1929V44.6964H25.2902V50.1929C25.2902 50.5312 25.4177 50.8271 25.5877 50.9963C25.8002 51.2077 26.0552 51.2922 26.3528 51.2922C26.6503 51.2922 26.9053 51.2077 27.1604 50.9963C27.3729 50.7849 27.5004 50.5312 27.5004 50.1929V44.6964H28.9881V50.1929ZM30.3907 52.4761V44.6541H34.4287V45.9225H31.8359V47.8675H34.1736V49.1359H31.8359V51.2077H34.4287V52.4761H30.3907ZM33.111 53.4909C33.111 53.66 33.026 53.8291 32.8985 53.9559C32.771 54.0828 32.601 54.1674 32.4309 54.1674C32.2184 54.1674 32.0909 54.0828 31.9209 53.9559C31.7934 53.8291 31.7084 53.66 31.7084 53.4909C31.7084 53.3217 31.7934 53.1526 31.9209 53.0258C32.0484 52.8989 32.2184 52.8144 32.4309 52.8144C32.601 52.8144 32.771 52.8989 32.8985 53.0258C33.026 53.1526 33.111 53.2795 33.111 53.4909ZM33.6211 44.4004L32.3884 43.4702L31.1558 44.4004L30.6882 43.9776L31.8784 42.7937C32.0059 42.6246 32.1759 42.5823 32.3884 42.5823C32.601 42.5823 32.7285 42.6669 32.8985 42.7937L34.0886 43.9776L33.6211 44.4004ZM40.3368 45.9225V52.4761H38.8916V45.9225H37.2765V44.6541H41.9095V45.9225H40.3368ZM46.925 52.4761L45.9899 50.0661C45.9049 49.8124 45.7774 49.6433 45.6074 49.5164C45.4374 49.3896 45.2248 49.305 44.9698 49.305H44.4173V52.4761H42.9296V44.9501C43.2271 44.8232 43.5672 44.6964 43.9922 44.6541C44.3747 44.5695 44.7998 44.5273 45.2248 44.5273C46.1599 44.5273 46.8825 44.7387 47.3501 45.1615C47.8176 45.5843 48.0727 46.134 48.0727 46.895C48.0727 47.191 48.0301 47.4447 47.9451 47.6561C47.8601 47.8675 47.7751 48.0789 47.6051 48.2057C47.4776 48.3748 47.3076 48.5017 47.1376 48.5863C46.9675 48.6708 46.755 48.7554 46.585 48.8399C46.7975 48.9668 46.9675 49.0936 47.095 49.305C47.2226 49.5164 47.3501 49.7278 47.4776 49.9815L48.4977 52.4761H46.925ZM46.585 46.9796C46.585 46.5568 46.4575 46.2608 46.245 46.0071C46.0324 45.7957 45.6924 45.6689 45.2248 45.6689C45.0548 45.6689 44.9273 45.6689 44.7573 45.7111C44.5873 45.7534 44.4598 45.7534 44.3747 45.7957V48.2057H45.1398C45.6074 48.2057 45.9474 48.1212 46.2024 47.9098C46.4575 47.7406 46.585 47.4024 46.585 46.9796ZM49.3903 52.4761V44.6541H53.4282V45.9225H50.8355V47.8675H53.1732V49.1359H50.8355V51.2077H53.4282V52.4761H49.3903ZM51.0905 44.4004L51.048 43.6394C51.1755 43.5971 51.2605 43.5971 51.3455 43.5548C51.4305 43.5125 51.5155 43.4702 51.558 43.428C51.643 43.3857 51.6855 43.3434 51.7281 43.2588C51.7706 43.2166 51.7706 43.132 51.7706 43.0474C51.7706 42.9206 51.7281 42.7937 51.643 42.7092C51.558 42.6246 51.4305 42.5823 51.218 42.6246C51.048 42.6669 50.8355 42.7515 50.6654 42.9206L50.4529 42.3709C50.5804 42.2441 50.7079 42.1595 50.878 42.1172C51.048 42.075 51.1755 42.0327 51.3455 42.0327C51.6856 41.9904 51.9831 42.075 52.1956 42.2441C52.4081 42.4132 52.5356 42.6669 52.5356 43.0052C52.5356 43.132 52.4931 43.2588 52.4506 43.3434C52.4081 43.428 52.3231 43.5548 52.2381 43.5971C52.1531 43.6816 52.0681 43.7239 51.9831 43.8085C51.8981 43.8508 51.8131 43.8931 51.7281 43.9353L51.643 44.3581H51.0905V44.4004Z" fill="black"/>
<path fill-rule="evenodd" clip-rule="evenodd" d="M38.6366 7.40452C37.5315 9.47629 36.7239 11.7595 36.2989 14.0849C35.0662 21.2304 38.4241 24.2747 40.2518 24.4861C36.7664 22.9217 36.6389 17.4251 37.3615 14.2963C37.9141 12.0977 38.8492 9.94138 39.9118 8.1233C43.2696 10.0682 46.16 12.9011 47.5201 16.5372C48.4552 18.9895 48.6252 21.611 47.2226 23.3445C48.5827 22.372 50.3254 18.1862 46.755 12.8588C45.8624 11.5058 44.5448 10.1105 42.8021 8.71523C42.1645 8.20786 41.3569 7.65821 40.5068 7.10855C42.0795 4.57169 45.0123 1.61201 48.4127 2.03483C51.0055 2.37307 52.7057 4.78309 52.4507 8.7998C52.3231 10.4065 52.0256 12.0132 51.7706 13.4084C51.5581 14.6346 51.2605 15.9453 51.5581 15.9453C51.7706 15.9876 51.9831 15.5225 52.2381 14.8883C52.8757 12.9433 53.3858 10.8293 53.6408 8.7998C54.3209 3.51466 51.7281 0.174459 48.1152 0.00533432C44.0772 -0.16379 40.6344 3.72607 39.2317 6.34749C35.4913 4.318 28.733 2.28851 26.4803 7.70049C25.3752 10.2796 26.4378 13.8735 27.968 16.199C28.9456 17.7211 29.3706 17.1714 28.6905 15.8185C27.2029 12.9856 26.3528 9.26489 29.2006 6.98171C31.7084 4.82538 36.0439 6.17837 38.6366 7.40452Z" fill="#FCAF17"/>
<path fill-rule="evenodd" clip-rule="evenodd" d="M3.6129 38.7347L3.18785 36.7898L0.0425047 22.2028L0 22.0337H0.170019H0.212523C3.06034 22.0337 3.99544 22.0337 4.63301 24.9511L6.71574 34.4221L12.7089 23.5135L13.474 22.1183L13.5165 22.0337H13.6015H16.4918H16.7043L16.5768 22.2451L8.67095 36.7052C7.48082 38.8616 6.67323 38.8193 4.548 38.8193C4.33547 38.8193 4.12295 38.8193 3.78291 38.8193H3.6554L3.6129 38.7347ZM14.069 38.6502L14.0265 38.8193H14.1966H17.0869H17.2144V38.6924L19.1696 27.5725L23.2926 35.8173C23.8876 37.0012 24.3977 37.7623 25.1203 38.2273C25.8428 38.6924 26.7779 38.8193 28.1806 38.8193H28.3081V38.6924L31.2409 22.1605L31.2834 21.9914H31.1134H28.3081H28.1806V22.1183L26.2254 33.2382L22.2724 25.0357C21.6349 23.6827 21.0823 22.9639 20.3597 22.5411C19.5946 22.1183 18.6595 22.0337 17.1294 22.0337H17.0019V22.1605L14.069 38.6502Z" fill="black"/>
<path fill-rule="evenodd" clip-rule="evenodd" d="M54.8308 22.2873L53.8957 27.0227L53.8532 27.1919L52.2805 35.2253C51.7279 38.0158 50.7928 38.2272 47.9025 38.7769H47.86L47.6475 38.8192L47.69 38.6077L48.6251 33.83L48.6676 33.6609L50.2403 25.6275C50.7928 22.8369 51.7279 22.6255 54.6182 22.0758H54.6607L54.8733 22.0336L54.8308 22.2873Z" fill="black"/>
<path fill-rule="evenodd" clip-rule="evenodd" d="M30.2639 19.539C32.7291 22.541 35.1094 25.5852 36.172 29.3482C36.8521 31.716 36.8946 34.2528 35.1519 36.0709C34.0893 37.1702 32.7716 37.8467 31.3265 38.185C30.3064 38.4387 30.8589 38.8192 31.369 38.7769C32.8566 38.6501 34.3018 38.3541 35.747 37.9313C41.6551 36.1555 45.7781 32.1388 48.4559 26.8959C49.2209 25.4161 49.9435 23.598 50.5811 21.6108C50.8786 20.6806 51.1336 19.7927 51.3037 18.9048C51.3887 18.4397 51.7712 17.2559 51.3887 17.129C51.0911 17.0022 50.6661 18.482 50.5811 18.7357C49.1784 23.0907 47.5208 25.0779 44.7579 25.7966C42.4627 26.3886 39.3599 25.6275 36.3845 23.7249C34.3018 22.3719 32.5591 20.6806 30.9439 18.8203C29.2012 16.8331 28.7762 17.721 30.2639 19.539ZM41.3576 17.2981C43.2703 16.368 45.608 17.1713 46.5431 19.0739C47.4782 20.9766 46.6707 23.3021 44.7579 24.2322C42.8452 25.1624 40.5075 24.3591 39.5724 22.4564C38.6373 20.5538 39.4449 18.2283 41.3576 17.2981Z" fill="#ED1C24"/>
</svg>
